# 3ds Max Wavefront OBJ Exporter v0.97b - (c)2007 guruware
# File Created: 10.08.2018 17:04:16

mtllib Railing.mtl

#
# object Gelander014
#

v  13.5496 6.7239 2.8008
v  13.5496 7.8269 2.8008
v  13.7423 7.8269 0.4630
v  13.7423 6.7239 0.4630
v  12.9648 6.7239 5.0731
v  12.9648 7.8269 5.0731
v  11.9842 6.7239 7.2039
v  11.9842 7.8269 7.2039
v  10.6575 6.7239 9.1392
v  10.6575 7.8269 9.1392
v  9.0072 6.7239 10.8062
v  9.0072 7.8269 10.8062
v  7.0987 6.7239 12.1710
v  7.0987 7.8269 12.1710
v  4.9778 6.7239 13.1730
v  4.9778 7.8269 13.1730
v  2.7175 6.7239 13.8027
v  2.7175 7.8269 13.8027
v  0.3818 6.7239 14.0189
v  0.3818 7.8269 14.0189
v  -1.9575 6.7239 13.8376
v  -1.9575 7.8269 13.8376
v  13.5146 6.7239 -1.8723
v  13.5146 7.8269 -1.8723
v  12.8961 7.8269 -4.1350
v  12.8961 6.7239 -4.1350
v  11.8834 6.7239 -6.2515
v  11.8834 7.8269 -6.2515
v  10.5284 7.8269 -8.1662
v  10.5284 6.7239 -8.1662
v  8.8529 6.7239 -9.8088
v  8.8529 7.8269 -9.8088
v  6.9247 7.8269 -11.1445
v  6.9247 6.7239 -11.1445
v  4.7884 6.7239 -12.1150
v  4.7884 7.8269 -12.1150
v  2.5196 7.8269 -12.7107
v  2.5196 6.7239 -12.7107
v  0.1803 6.7239 -12.8920
v  0.1803 7.8269 -12.8920
v  -2.1554 7.8269 -12.6758
v  -2.1554 6.7239 -12.6758
v  -4.2263 6.7239 13.2419
v  -4.2263 7.8269 13.2419
v  -6.3626 6.7239 12.2715
v  -6.3626 7.8269 12.2715
v  -8.2908 6.7239 10.9357
v  -8.2908 7.8269 10.9357
v  -9.9663 6.7239 9.2931
v  -9.9663 7.8269 9.2931
v  -11.3213 6.7239 7.3784
v  -11.3213 7.8269 7.3784
v  -12.3340 6.7239 5.2619
v  -12.3340 7.8269 5.2619
v  -12.9525 6.7239 2.9992
v  -12.9525 7.8269 2.9992
v  -13.1802 6.7239 0.6639
v  -13.1802 7.8269 0.6639
v  -12.9875 6.7239 -1.6738
v  -12.9875 7.8269 -1.6738
v  -12.4027 6.7239 -3.9461
v  -12.4027 7.8269 -3.9461
v  -11.4221 6.7239 -6.0770
v  -11.4221 7.8269 -6.0770
v  -10.0954 6.7239 -8.0123
v  -10.0954 7.8269 -8.0123
v  -8.4451 6.7239 -9.6793
v  -8.4451 7.8269 -9.6793
v  -6.5366 6.7239 -11.0441
v  -6.5366 7.8269 -11.0441
v  -4.4157 6.7239 -12.0461
v  -4.4157 7.8269 -12.0461
# 72 vertices

vn -0.9966 0.0000 -0.0821
vn -0.9684 0.0000 -0.2492
vn -0.9084 0.0000 -0.4181
vn -0.8248 0.0000 -0.5654
vn -0.7107 0.0000 -0.7035
vn -0.5817 0.0000 -0.8134
vn -0.4272 0.0000 -0.9042
vn -0.2684 0.0000 -0.9633
vn -0.0922 0.0000 -0.9957
vn 0.0773 0.0000 -0.9970
vn -0.9646 0.0000 0.2637
vn -0.9953 0.0000 0.0970
vn -0.8163 0.0000 0.5777
vn -0.9021 0.0000 0.4316
vn -0.5695 0.0000 0.8220
vn -0.7001 0.0000 0.7141
vn -0.2540 0.0000 0.9672
vn -0.4136 0.0000 0.9105
vn 0.0922 0.0000 0.9957
vn -0.0773 0.0000 0.9970
vn 0.2540 0.0000 -0.9672
vn 0.4136 0.0000 -0.9105
vn 0.5695 0.0000 -0.8220
vn 0.7001 0.0000 -0.7141
vn 0.8163 0.0000 -0.5777
vn 0.9021 0.0000 -0.4316
vn 0.9646 0.0000 -0.2637
vn 0.9953 0.0000 -0.0970
vn 0.9966 0.0000 0.0821
vn 0.9684 0.0000 0.2492
vn 0.9084 0.0000 0.4181
vn 0.8248 0.0000 0.5654
vn 0.7107 0.0000 0.7035
vn 0.5817 0.0000 0.8134
vn 0.4272 0.0000 0.9042
vn 0.2684 0.0000 0.9633
# 36 vertex normals

vt 1.0084 0.0329 0.0000
vt 1.0084 0.9901 0.0000
vt -0.0008 0.9901 0.0000
vt -0.0008 0.0329 0.0000
vt 1.0083 0.0326 0.0000
vt 1.0083 0.9898 0.0000
vt -0.0018 0.9898 0.0000
vt -0.0018 0.0326 0.0000
# 8 texture coords

o Gelander014
g Gelander014
usemtl railing
s off
f 1/1/1 2/2/1 3/3/1 
f 3/3/1 4/4/1 1/1/1 
f 5/5/2 6/6/2 2/7/2 
f 2/7/2 1/8/2 5/5/2 
f 7/1/3 8/2/3 6/3/3 
f 6/3/3 5/4/3 7/1/3 
f 9/5/4 10/6/4 8/7/4 
f 8/7/4 7/8/4 9/5/4 
f 11/1/5 12/2/5 10/3/5 
f 10/3/5 9/4/5 11/1/5 
f 13/5/6 14/6/6 12/7/6 
f 12/7/6 11/8/6 13/5/6 
f 15/1/7 16/2/7 14/3/7 
f 14/3/7 13/4/7 15/1/7 
f 17/5/8 18/6/8 16/7/8 
f 16/7/8 15/8/8 17/5/8 
f 19/1/9 20/2/9 18/3/9 
f 18/3/9 17/4/9 19/1/9 
f 21/5/10 22/6/10 20/7/10 
f 20/7/10 19/8/10 21/5/10 
f 23/1/11 24/2/11 25/3/11 
f 25/3/11 26/4/11 23/1/11 
f 4/5/12 3/6/12 24/7/12 
f 24/7/12 23/8/12 4/5/12 
f 27/1/13 28/2/13 29/3/13 
f 29/3/13 30/4/13 27/1/13 
f 26/5/14 25/6/14 28/7/14 
f 28/7/14 27/8/14 26/5/14 
f 31/1/15 32/2/15 33/3/15 
f 33/3/15 34/4/15 31/1/15 
f 30/5/16 29/6/16 32/7/16 
f 32/7/16 31/8/16 30/5/16 
f 35/1/17 36/2/17 37/3/17 
f 37/3/17 38/4/17 35/1/17 
f 34/5/18 33/6/18 36/7/18 
f 36/7/18 35/8/18 34/5/18 
f 39/1/19 40/2/19 41/3/19 
f 41/3/19 42/4/19 39/1/19 
f 38/5/20 37/6/20 40/7/20 
f 40/7/20 39/8/20 38/5/20 
f 43/1/21 44/2/21 22/3/21 
f 22/3/21 21/4/21 43/1/21 
f 45/5/22 46/6/22 44/7/22 
f 44/7/22 43/8/22 45/5/22 
f 47/1/23 48/2/23 46/3/23 
f 46/3/23 45/4/23 47/1/23 
f 49/5/24 50/6/24 48/7/24 
f 48/7/24 47/8/24 49/5/24 
f 51/1/25 52/2/25 50/3/25 
f 50/3/25 49/4/25 51/1/25 
f 53/5/26 54/6/26 52/7/26 
f 52/7/26 51/8/26 53/5/26 
f 55/1/27 56/2/27 54/3/27 
f 54/3/27 53/4/27 55/1/27 
f 57/5/28 58/6/28 56/7/28 
f 56/7/28 55/8/28 57/5/28 
f 59/1/29 60/2/29 58/3/29 
f 58/3/29 57/4/29 59/1/29 
f 61/5/30 62/6/30 60/7/30 
f 60/7/30 59/8/30 61/5/30 
f 63/1/31 64/2/31 62/3/31 
f 62/3/31 61/4/31 63/1/31 
f 65/5/32 66/6/32 64/7/32 
f 64/7/32 63/8/32 65/5/32 
f 67/1/33 68/2/33 66/3/33 
f 66/3/33 65/4/33 67/1/33 
f 69/5/34 70/6/34 68/7/34 
f 68/7/34 67/8/34 69/5/34 
f 71/1/35 72/2/35 70/3/35 
f 70/3/35 69/4/35 71/1/35 
f 42/5/36 41/6/36 72/7/36 
f 72/7/36 71/8/36 42/5/36 
# 72 faces

#
# object Object024
#

v  13.7154 7.7965 0.4632
v  13.5231 7.7965 2.7963
v  13.5231 7.8399 2.7963
v  13.7154 7.8399 0.4632
v  12.9395 7.7965 5.0641
v  12.9395 7.8399 5.0641
v  11.9608 7.7965 7.1907
v  11.9608 7.8399 7.1907
v  10.6368 7.7965 9.1221
v  10.6368 7.8399 9.1221
v  8.9898 7.7965 10.7857
v  8.9898 7.8399 10.7857
v  7.0850 7.7965 12.1478
v  7.0850 7.8399 12.1478
v  4.9684 7.7965 13.1478
v  4.9684 7.8399 13.1478
v  2.7126 7.7965 13.7763
v  2.7126 7.8399 13.7763
v  0.3816 7.7965 13.9920
v  0.3816 7.8399 13.9920
v  -1.9531 7.7965 13.8111
v  -1.9531 7.8399 13.8111
v  12.8709 7.7965 -4.1256
v  13.4881 7.7965 -1.8674
v  13.4881 7.8399 -1.8674
v  12.8709 7.8399 -4.1256
v  10.5079 7.7965 -8.1488
v  11.8603 7.7965 -6.2379
v  11.8603 7.8399 -6.2379
v  10.5079 7.8399 -8.1488
v  6.9114 7.7965 -11.1211
v  8.8357 7.7965 -9.7880
v  8.8357 7.8399 -9.7880
v  6.9114 7.8399 -11.1211
v  2.5152 7.7965 -12.6842
v  4.7794 7.7965 -12.0896
v  4.7794 7.8399 -12.0896
v  2.5152 7.8399 -12.6842
v  -2.1505 7.7965 -12.6494
v  0.1805 7.7965 -12.8651
v  0.1805 7.8399 -12.8651
v  -2.1505 7.8399 -12.6494
v  -4.2173 7.7965 13.2166
v  -4.2173 7.8399 13.2166
v  -6.3493 7.7965 12.2481
v  -6.3493 7.8399 12.2481
v  -8.2736 7.7965 10.9150
v  -8.2736 7.8399 10.9150
v  -9.9458 7.7965 9.2757
v  -9.9458 7.8399 9.2757
v  -11.2982 7.7965 7.3648
v  -11.2982 7.8399 7.3648
v  -12.3088 7.7965 5.2525
v  -12.3088 7.8399 5.2525
v  -12.9260 7.7965 2.9943
v  -12.9260 7.8399 2.9943
v  -13.1533 7.7965 0.6637
v  -13.1533 7.8399 0.6637
v  -12.9610 7.7965 -1.6694
v  -12.9610 7.8399 -1.6694
v  -12.3774 7.7965 -3.9371
v  -12.3774 7.8399 -3.9371
v  -11.3987 7.7965 -6.0637
v  -11.3987 7.8399 -6.0637
v  -10.0747 7.7965 -7.9951
v  -10.0747 7.8399 -7.9951
v  -8.4277 7.7965 -9.6588
v  -8.4277 7.8399 -9.6588
v  -6.5229 7.7965 -11.0209
v  -6.5229 7.8399 -11.0209
v  -4.4063 7.7965 -12.0209
v  -4.4063 7.8399 -12.0209
v  13.5907 7.8399 2.8077
v  13.7839 7.8399 0.4627
v  13.0041 7.8399 5.0870
v  12.0204 7.8399 7.2245
v  10.6896 7.8399 9.1658
v  9.0342 7.8399 10.8379
v  7.1198 7.8399 12.2069
v  4.9923 7.8399 13.2120
v  2.7251 7.8399 13.8437
v  0.3821 7.8399 14.0606
v  -1.9645 7.8399 13.8787
v  13.5556 7.8399 -1.8798
v  12.9352 7.8399 -4.1495
v  11.9194 7.8399 -6.2726
v  10.5601 7.8399 -8.1932
v  8.8794 7.8399 -9.8409
v  6.9452 7.8399 -11.1808
v  4.8024 7.8399 -12.1542
v  2.5266 7.8399 -12.7518
v  0.1800 7.8399 -12.9336
v  -2.1629 7.8399 -12.7168
v  -4.2403 7.8399 13.2812
v  -6.3831 7.8399 12.3077
v  -8.3173 7.8399 10.9678
v  -9.9980 7.8399 9.3202
v  -11.3573 7.8399 7.3995
v  -12.3730 7.8399 5.2764
v  -12.9935 7.8399 3.0067
v  -13.2218 7.8399 0.6642
v  -13.0286 7.8399 -1.6808
v  -12.4420 7.8399 -3.9601
v  -11.4583 7.8399 -6.0976
v  -10.1275 7.8399 -8.0388
v  -8.4721 7.8399 -9.7110
v  -6.5577 7.8399 -11.0800
v  -4.4302 7.8399 -12.0851
v  13.5907 7.7981 2.8077
v  13.7839 7.7981 0.4627
v  13.0041 7.7981 5.0870
v  12.0204 7.7981 7.2245
v  10.6896 7.7981 9.1658
v  9.0342 7.7981 10.8379
v  7.1198 7.7981 12.2069
v  4.9923 7.7981 13.2120
v  2.7251 7.7981 13.8437
v  0.3821 7.7981 14.0606
v  -1.9645 7.7981 13.8787
v  13.5556 7.7981 -1.8798
v  12.9352 7.7981 -4.1495
v  11.9194 7.7981 -6.2726
v  10.5601 7.7981 -8.1932
v  8.8794 7.7981 -9.8409
v  6.9452 7.7981 -11.1808
v  4.8024 7.7981 -12.1542
v  2.5266 7.7981 -12.7518
v  0.1800 7.7981 -12.9336
v  -2.1629 7.7981 -12.7168
v  -4.2403 7.7981 13.2812
v  -6.3831 7.7981 12.3077
v  -8.3173 7.7981 10.9678
v  -9.9980 7.7981 9.3202
v  -11.3573 7.7981 7.3995
v  -12.3731 7.7981 5.2764
v  -12.9935 7.7981 3.0067
v  -13.2218 7.7981 0.6642
v  -13.0286 7.7981 -1.6808
v  -12.4420 7.7981 -3.9601
v  -11.4583 7.7981 -6.0976
v  -10.1275 7.7981 -8.0388
v  -8.4721 7.7981 -9.7110
v  -6.5577 7.7981 -11.0800
v  -4.4302 7.7981 -12.0851
# 144 vertices

vn -0.9966 0.0001 -0.0821
vn -0.9966 -0.0001 -0.0821
vn -0.9684 0.0000 -0.2492
vn -0.9684 0.0001 -0.2492
vn -0.9084 -0.0000 -0.4181
vn -0.9084 0.0000 -0.4181
vn -0.8248 0.0000 -0.5654
vn -0.8248 -0.0000 -0.5654
vn -0.7107 0.0000 -0.7035
vn -0.5817 -0.0001 -0.8134
vn -0.5817 0.0000 -0.8134
vn -0.4272 0.0000 -0.9042
vn -0.4272 -0.0000 -0.9042
vn -0.2684 -0.0000 -0.9633
vn -0.2684 0.0000 -0.9633
vn -0.0922 -0.0000 -0.9957
vn 0.0773 0.0001 -0.9970
vn 0.0773 -0.0000 -0.9970
vn -0.9646 0.0000 0.2637
vn -0.9646 -0.0001 0.2637
vn -0.9953 -0.0001 0.0970
vn -0.9953 0.0001 0.0970
vn -0.8163 0.0000 0.5777
vn -0.8163 -0.0002 0.5777
vn -0.9021 -0.0001 0.4316
vn -0.9021 0.0000 0.4316
vn -0.5695 -0.0000 0.8220
vn -0.5695 0.0000 0.8220
vn -0.7001 -0.0002 0.7141
vn -0.7001 -0.0000 0.7141
vn -0.2540 0.0000 0.9672
vn -0.4136 0.0000 0.9105
vn 0.0922 -0.0001 0.9957
vn 0.0922 -0.0000 0.9957
vn -0.0773 0.0000 0.9970
vn -0.0773 -0.0001 0.9970
vn 0.2540 0.0001 -0.9672
vn 0.4136 -0.0000 -0.9105
vn 0.4136 0.0001 -0.9105
vn 0.5695 0.0000 -0.8220
vn 0.7001 0.0000 -0.7141
vn 0.8163 -0.0001 -0.5777
vn 0.8163 0.0000 -0.5777
vn 0.9021 -0.0001 -0.4316
vn 0.9646 0.0000 -0.2637
vn 0.9646 -0.0001 -0.2637
vn 0.9953 0.0001 -0.0970
vn 0.9966 0.0000 0.0821
vn 0.9966 0.0001 0.0821
vn 0.9684 0.0000 0.2492
vn 0.9084 0.0000 0.4181
vn 0.8248 0.0001 0.5654
vn 0.8248 0.0000 0.5654
vn 0.7107 0.0000 0.7035
vn 0.7107 0.0001 0.7035
vn 0.5817 0.0000 0.8134
vn 0.4272 0.0000 0.9042
vn 0.2684 -0.0000 0.9633
vn 0.2684 0.0000 0.9633
vn 0.0000 1.0000 -0.0000
vn 0.0000 1.0000 0.0000
vn -0.0000 1.0000 0.0000
vn -0.0000 1.0000 -0.0000
vn 0.9684 0.0001 0.2492
vn 0.9084 -0.0000 0.4181
vn 0.9084 0.0001 0.4181
vn 0.8248 -0.0000 0.5654
vn 0.5817 0.0001 0.8134
vn 0.0922 0.0001 0.9957
vn -0.0773 0.0001 0.9970
vn 0.9646 0.0001 -0.2637
vn 0.8163 0.0001 -0.5777
vn 0.9021 0.0000 -0.4316
vn 0.9021 0.0001 -0.4316
vn 0.5695 -0.0000 -0.8220
vn 0.7001 0.0001 -0.7141
vn 0.2540 0.0000 -0.9672
vn 0.2540 -0.0000 -0.9672
vn 0.4136 0.0000 -0.9105
vn -0.0922 0.0001 -0.9957
vn -0.5695 0.0001 0.8220
vn -0.7001 0.0001 0.7141
vn -0.8163 0.0001 0.5777
vn -0.9646 0.0001 0.2637
vn -0.9953 0.0000 0.0970
vn -0.9966 0.0000 -0.0821
vn -0.4272 0.0001 -0.9042
vn -0.2684 0.0001 -0.9633
# 88 vertex normals

vt 16.9557 0.9578 0.0000
vt 17.4343 0.9578 0.0000
vt 17.4343 0.9885 0.0000
vt 16.9557 0.9885 0.0000
vt 18.0615 0.9578 0.0000
vt 18.0615 0.9885 0.0000
vt 18.8096 0.9578 0.0000
vt 18.8096 0.9885 0.0000
vt 19.6505 0.9578 0.0000
vt 19.6505 0.9885 0.0000
vt 20.5548 0.9578 0.0000
vt 20.5548 0.9885 0.0000
vt 21.4951 0.9578 0.0000
vt 21.4951 0.9885 0.0000
vt 22.4467 0.9578 0.0000
vt 22.4467 0.9885 0.0000
vt 0.0001 0.9578 0.0000
vt 0.9370 0.9578 0.0000
vt 0.9370 0.9885 0.0000
vt 0.0001 0.9885 0.0000
vt 1.8281 0.9578 0.0000
vt 1.8281 0.9885 0.0000
vt 2.6561 0.9578 0.0000
vt 2.6561 0.9885 0.0000
vt 16.4443 0.9578 0.0000
vt 16.5587 0.9578 0.0000
vt 16.5587 0.9885 0.0000
vt 16.4443 0.9885 0.0000
vt 16.1241 0.9578 0.0000
vt 16.3564 0.9578 0.0000
vt 16.3564 0.9885 0.0000
vt 16.1241 0.9885 0.0000
vt 15.2364 0.9578 0.0000
vt 15.7453 0.9578 0.0000
vt 15.7453 0.9885 0.0000
vt 15.2364 0.9885 0.0000
vt 13.8927 0.9578 0.0000
vt 14.6136 0.9578 0.0000
vt 14.6136 0.9885 0.0000
vt 13.8927 0.9885 0.0000
vt 12.2233 0.9578 0.0000
vt 13.0900 0.9578 0.0000
vt 13.0900 0.9885 0.0000
vt 12.2233 0.9885 0.0000
vt 3.3970 0.9578 0.0000
vt 3.3970 0.9885 0.0000
vt 4.0299 0.9578 0.0000
vt 4.0299 0.9885 0.0000
vt 4.5457 0.9578 0.0000
vt 4.5457 0.9885 0.0000
vt 4.9340 0.9578 0.0000
vt 4.9340 0.9885 0.0000
vt 5.1786 0.9578 0.0000
vt 5.1786 0.9885 0.0000
vt 5.2713 0.9578 0.0000
vt 5.2713 0.9885 0.0000
vt 5.3865 0.9578 0.0000
vt 5.3865 0.9885 0.0000
vt 5.7077 0.9578 0.0000
vt 5.7077 0.9885 0.0000
vt 6.2215 0.9578 0.0000
vt 6.2215 0.9885 0.0000
vt 6.8858 0.9578 0.0000
vt 6.8858 0.9885 0.0000
vt 7.6621 0.9578 0.0000
vt 7.6621 0.9885 0.0000
vt 8.5194 0.9578 0.0000
vt 8.5194 0.9885 0.0000
vt 9.4320 0.9578 0.0000
vt 9.4320 0.9885 0.0000
vt 10.3720 0.9578 0.0000
vt 10.3720 0.9885 0.0000
vt 11.3106 0.9578 0.0000
vt 11.3106 0.9885 0.0000
vt 18.1333 0.9578 0.0000
vt 18.6247 0.9578 0.0000
vt 18.6247 0.9885 0.0000
vt 18.1333 0.9885 0.0000
vt 19.1908 0.9578 0.0000
vt 19.1908 0.9885 0.0000
vt 19.8252 0.9578 0.0000
vt 19.8252 0.9885 0.0000
vt 20.5095 0.9578 0.0000
vt 20.5095 0.9885 0.0000
vt 21.2217 0.9578 0.0000
vt 21.2217 0.9885 0.0000
vt 21.9396 0.9578 0.0000
vt 21.9396 0.9885 0.0000
vt 22.6452 0.9578 0.0000
vt 22.6452 0.9885 0.0000
vt 23.3242 0.9578 0.0000
vt 23.3242 0.9885 0.0000
vt 23.9672 0.9578 0.0000
vt 23.9672 0.9885 0.0000
vt 24.5734 0.9578 0.0000
vt 24.5734 0.9885 0.0000
vt 17.2492 0.9578 0.0000
vt 17.6782 0.9578 0.0000
vt 17.6782 0.9885 0.0000
vt 17.2492 0.9885 0.0000
vt 16.1433 0.9578 0.0000
vt 16.7564 0.9578 0.0000
vt 16.7564 0.9885 0.0000
vt 16.1433 0.9885 0.0000
vt 14.4569 0.9578 0.0000
vt 15.3795 0.9578 0.0000
vt 15.3795 0.9885 0.0000
vt 14.4569 0.9885 0.0000
vt 12.1786 0.9578 0.0000
vt 13.3838 0.9578 0.0000
vt 13.3838 0.9885 0.0000
vt 12.1786 0.9885 0.0000
vt 9.4882 0.9578 0.0000
vt 10.8692 0.9578 0.0000
vt 10.8692 0.9885 0.0000
vt 9.4882 0.9885 0.0000
vt 25.1462 0.9578 0.0000
vt 25.1462 0.9885 0.0000
vt 25.6857 0.9578 0.0000
vt 25.6857 0.9885 0.0000
vt 26.1890 0.9578 0.0000
vt 26.1890 0.9885 0.0000
vt 26.6518 0.9578 0.0000
vt 26.6518 0.9885 0.0000
vt 27.0709 0.9578 0.0000
vt 27.0709 0.9885 0.0000
vt 27.4467 0.9578 0.0000
vt 27.4467 0.9885 0.0000
vt 27.7853 0.9578 0.0000
vt 27.7853 0.9885 0.0000
vt 28.1077 0.9578 0.0000
vt 28.1077 0.9885 0.0000
vt 0.9535 0.9578 0.0000
vt 0.9535 0.9885 0.0000
vt 1.9201 0.9578 0.0000
vt 1.9201 0.9885 0.0000
vt 2.9568 0.9578 0.0000
vt 2.9568 0.9885 0.0000
vt 4.0967 0.9578 0.0000
vt 4.0967 0.9885 0.0000
vt 5.3447 0.9578 0.0000
vt 5.3447 0.9885 0.0000
vt 6.6824 0.9578 0.0000
vt 6.6824 0.9885 0.0000
vt 8.0775 0.9578 0.0000
vt 8.0775 0.9885 0.0000
vt 33.7755 0.9885 0.0000
vt 31.5407 0.9885 0.0000
vt 31.5407 0.9578 0.0000
vt 33.7755 0.9578 0.0000
vt 29.3577 0.9885 0.0000
vt 29.3577 0.9578 0.0000
vt 27.2770 0.9885 0.0000
vt 27.2770 0.9578 0.0000
vt 25.2948 0.9885 0.0000
vt 25.2948 0.9578 0.0000
vt 23.4081 0.9885 0.0000
vt 23.4081 0.9578 0.0000
vt 21.6143 0.9885 0.0000
vt 21.6143 0.9578 0.0000
vt 19.9145 0.9885 0.0000
vt 19.9145 0.9578 0.0000
vt 18.3088 0.9885 0.0000
vt 18.3088 0.9578 0.0000
vt 16.7965 0.9885 0.0000
vt 16.7965 0.9578 0.0000
vt 15.3878 0.9885 0.0000
vt 15.3878 0.9578 0.0000
vt 38.6174 0.9885 0.0000
vt 36.1587 0.9885 0.0000
vt 36.1587 0.9578 0.0000
vt 38.6174 0.9578 0.0000
vt 43.6579 0.9885 0.0000
vt 41.1236 0.9885 0.0000
vt 41.1236 0.9578 0.0000
vt 43.6579 0.9578 0.0000
vt 48.7596 0.9885 0.0000
vt 46.2078 0.9885 0.0000
vt 46.2078 0.9578 0.0000
vt 48.7596 0.9578 0.0000
vt 53.8527 0.9885 0.0000
vt 51.3074 0.9885 0.0000
vt 51.3074 0.9578 0.0000
vt 53.8527 0.9578 0.0000
vt 2.4686 0.9885 0.0000
vt 1.2350 0.9885 0.0000
vt 1.2350 0.9578 0.0000
vt 2.4686 0.9578 0.0000
vt 14.1027 0.9885 0.0000
vt 14.1027 0.9578 0.0000
vt 12.9624 0.9885 0.0000
vt 12.9624 0.9578 0.0000
vt 11.9827 0.9885 0.0000
vt 11.9827 0.9578 0.0000
vt 11.1833 0.9885 0.0000
vt 11.1833 0.9578 0.0000
vt 10.5815 0.9885 0.0000
vt 10.5815 0.9578 0.0000
vt 10.1777 0.9885 0.0000
vt 10.1777 0.9578 0.0000
vt 9.9225 0.9885 0.0000
vt 9.9225 0.9578 0.0000
vt 9.6672 0.9885 0.0000
vt 9.6672 0.9578 0.0000
vt 9.2606 0.9885 0.0000
vt 9.2606 0.9578 0.0000
vt 8.6601 0.9885 0.0000
vt 8.6601 0.9578 0.0000
vt 7.8912 0.9885 0.0000
vt 7.8912 0.9578 0.0000
vt 6.9869 0.9885 0.0000
vt 6.9869 0.9578 0.0000
vt 5.9714 0.9885 0.0000
vt 5.9714 0.9578 0.0000
vt 4.8648 0.9885 0.0000
vt 4.8648 0.9578 0.0000
vt 3.6883 0.9885 0.0000
vt 3.6883 0.9578 0.0000
# 218 texture coords

o Object024
g Object024
usemtl railing
s off
f 73/9/37 74/10/37 75/11/37 
f 75/11/38 76/12/38 73/9/38 
f 74/10/39 77/13/39 78/14/39 
f 78/14/40 75/11/40 74/10/40 
f 77/13/41 79/15/41 80/16/41 
f 80/16/42 78/14/42 77/13/42 
f 79/15/43 81/17/43 82/18/43 
f 82/18/44 80/16/44 79/15/44 
f 81/17/45 83/19/45 84/20/45 
f 84/20/45 82/18/45 81/17/45 
f 83/19/46 85/21/46 86/22/46 
f 86/22/47 84/20/47 83/19/47 
f 85/21/48 87/23/48 88/24/48 
f 88/24/49 86/22/49 85/21/49 
f 87/25/50 89/26/50 90/27/50 
f 90/27/51 88/28/51 87/25/51 
f 89/26/52 91/29/52 92/30/52 
f 92/30/52 90/27/52 89/26/52 
f 91/29/53 93/31/53 94/32/53 
f 94/32/54 92/30/54 91/29/54 
f 95/33/55 96/34/55 97/35/55 
f 97/35/56 98/36/56 95/33/56 
f 96/34/57 73/9/57 76/12/57 
f 76/12/58 97/35/58 96/34/58 
f 99/37/59 100/38/59 101/39/59 
f 101/39/60 102/40/60 99/37/60 
f 100/38/61 95/33/61 98/36/61 
f 98/36/62 101/39/62 100/38/62 
f 103/41/63 104/42/63 105/43/63 
f 105/43/64 106/44/64 103/41/64 
f 104/42/65 99/37/65 102/40/65 
f 102/40/66 105/43/66 104/42/66 
f 107/45/67 108/46/67 109/47/67 
f 109/47/67 110/48/67 107/45/67 
f 108/46/68 103/41/68 106/44/68 
f 106/44/68 109/47/68 108/46/68 
f 111/49/69 112/50/69 113/51/69 
f 113/51/70 114/52/70 111/49/70 
f 112/50/71 107/45/71 110/48/71 
f 110/48/72 113/51/72 112/50/72 
f 93/31/73 115/53/73 116/54/73 
f 116/54/73 94/32/73 93/31/73 
f 115/53/74 117/55/74 118/56/74 
f 118/56/75 116/54/75 115/53/75 
f 117/55/76 119/57/76 120/58/76 
f 120/58/76 118/56/76 117/55/76 
f 119/57/77 121/59/77 122/60/77 
f 122/60/77 120/58/77 119/57/77 
f 121/59/78 123/61/78 124/62/78 
f 124/62/79 122/60/79 121/59/79 
f 123/61/80 125/63/80 126/64/80 
f 126/64/80 124/62/80 123/61/80 
f 125/63/81 127/65/81 128/66/81 
f 128/66/82 126/64/82 125/63/82 
f 127/65/83 129/67/83 130/68/83 
f 130/68/83 128/66/83 127/65/83 
f 129/67/84 131/69/84 132/70/84 
f 132/70/85 130/68/85 129/67/85 
f 131/69/86 133/71/86 134/72/86 
f 134/72/86 132/70/86 131/69/86 
f 133/71/87 135/73/87 136/74/87 
f 136/74/87 134/72/87 133/71/87 
f 135/73/88 137/75/88 138/76/88 
f 138/76/89 136/74/89 135/73/89 
f 137/75/90 139/77/90 140/78/90 
f 140/78/91 138/76/91 137/75/91 
f 139/77/92 141/79/92 142/80/92 
f 142/80/92 140/78/92 139/77/92 
f 141/79/93 143/81/93 144/82/93 
f 144/82/93 142/80/93 141/79/93 
f 143/81/94 111/49/94 114/52/94 
f 114/52/95 144/82/95 143/81/95 
f 76/83/96 75/84/96 145/85/96 
f 145/85/97 146/86/97 76/83/97 
f 75/84/97 78/87/97 147/88/97 
f 147/88/98 145/85/98 75/84/98 
f 78/87/97 80/89/97 148/90/97 
f 148/90/97 147/88/97 78/87/97 
f 80/89/97 82/91/97 149/92/97 
f 149/92/97 148/90/97 80/89/97 
f 82/91/97 84/93/97 150/94/97 
f 150/94/97 149/92/97 82/91/97 
f 84/93/97 86/95/97 151/96/97 
f 151/96/97 150/94/97 84/93/97 
f 86/95/97 88/97/97 152/98/97 
f 152/98/97 151/96/97 86/95/97 
f 88/97/97 90/99/97 153/100/97 
f 153/100/97 152/98/97 88/97/97 
f 90/99/97 92/101/97 154/102/97 
f 154/102/97 153/100/97 90/99/97 
f 92/101/98 94/103/98 155/104/98 
f 155/104/98 154/102/98 92/101/98 
f 98/105/96 97/106/96 156/107/96 
f 156/107/96 157/108/96 98/105/96 
f 97/106/96 76/83/96 146/86/96 
f 146/86/96 156/107/96 97/106/96 
f 102/109/96 101/110/96 158/111/96 
f 158/111/96 159/112/96 102/109/96 
f 101/110/96 98/105/96 157/108/96 
f 157/108/96 158/111/96 101/110/96 
f 106/113/96 105/114/96 160/115/96 
f 160/115/96 161/116/96 106/113/96 
f 105/114/96 102/109/96 159/112/96 
f 159/112/96 160/115/96 105/114/96 
f 110/117/96 109/118/96 162/119/96 
f 162/119/96 163/120/96 110/117/96 
f 109/118/96 106/113/96 161/116/96 
f 161/116/96 162/119/96 109/118/96 
f 114/121/99 113/122/99 164/123/99 
f 164/123/99 165/124/99 114/121/99 
f 113/122/96 110/117/96 163/120/96 
f 163/120/96 164/123/96 113/122/96 
f 94/103/98 116/125/98 166/126/98 
f 166/126/98 155/104/98 94/103/98 
f 116/125/98 118/127/98 167/128/98 
f 167/128/98 166/126/98 116/125/98 
f 118/127/98 120/129/98 168/130/98 
f 168/130/98 167/128/98 118/127/98 
f 120/129/98 122/131/98 169/132/98 
f 169/132/98 168/130/98 120/129/98 
f 122/131/98 124/133/98 170/134/98 
f 170/134/98 169/132/98 122/131/98 
f 124/133/98 126/135/98 171/136/98 
f 171/136/98 170/134/98 124/133/98 
f 126/135/98 128/137/98 172/138/98 
f 172/138/98 171/136/98 126/135/98 
f 128/137/98 130/139/98 173/140/98 
f 173/140/98 172/138/98 128/137/98 
f 130/25/99 132/141/99 174/142/99 
f 174/142/99 173/28/99 130/25/99 
f 132/141/99 134/143/99 175/144/99 
f 175/144/99 174/142/99 132/141/99 
f 134/143/99 136/145/99 176/146/99 
f 176/146/99 175/144/99 134/143/99 
f 136/145/99 138/147/99 177/148/99 
f 177/148/99 176/146/99 136/145/99 
f 138/147/99 140/149/99 178/150/99 
f 178/150/99 177/148/99 138/147/99 
f 140/149/99 142/151/99 179/152/99 
f 179/152/99 178/150/99 140/149/99 
f 142/151/99 144/153/99 180/154/99 
f 180/154/99 179/152/99 142/151/99 
f 144/153/99 114/121/99 165/124/99 
f 165/124/99 180/154/99 144/153/99 
f 146/155/84 145/156/84 181/157/84 
f 181/157/85 182/158/85 146/155/85 
f 145/156/100 147/159/100 183/160/100 
f 183/160/86 181/157/86 145/156/86 
f 147/159/101 148/161/101 184/162/101 
f 184/162/102 183/160/102 147/159/102 
f 148/161/88 149/163/88 185/164/88 
f 185/164/103 184/162/103 148/161/103 
f 149/163/91 150/165/91 186/166/91 
f 186/166/91 185/164/91 149/163/91 
f 150/165/92 151/167/92 187/168/92 
f 187/168/104 186/166/104 150/165/104 
f 151/167/93 152/169/93 188/170/93 
f 188/170/93 187/168/93 151/167/93 
f 152/169/94 153/171/94 189/172/94 
f 189/172/95 188/170/95 152/169/95 
f 153/171/105 154/173/105 190/174/105 
f 190/174/70 189/172/70 153/171/70 
f 154/173/71 155/175/71 191/176/71 
f 191/176/106 190/174/106 154/173/106 
f 157/177/107 156/178/107 192/179/107 
f 192/179/81 193/180/81 157/177/81 
f 156/178/83 146/155/83 182/158/83 
f 182/158/83 192/179/83 156/178/83 
f 159/181/108 158/182/108 194/183/108 
f 194/183/108 195/184/108 159/181/108 
f 158/182/109 157/177/109 193/180/109 
f 193/180/110 194/183/110 158/182/110 
f 161/185/76 160/186/76 196/187/76 
f 196/187/111 197/188/111 161/185/111 
f 160/186/112 159/181/112 195/184/112 
f 195/184/77 196/187/77 160/186/77 
f 163/189/113 162/190/113 198/191/113 
f 198/191/114 199/192/114 163/189/114 
f 162/190/74 161/185/74 197/188/74 
f 197/188/115 198/191/115 162/190/115 
f 165/193/116 164/194/116 200/195/116 
f 200/195/116 201/196/116 165/193/116 
f 164/194/54 163/28/54 199/25/54 
f 199/25/53 200/195/53 164/194/53 
f 155/175/67 166/197/67 202/198/67 
f 202/198/67 191/176/67 155/175/67 
f 166/197/68 167/199/68 203/200/68 
f 203/200/68 202/198/68 166/197/68 
f 167/199/117 168/201/117 204/202/117 
f 204/202/64 203/200/64 167/199/64 
f 168/201/118 169/203/118 205/204/118 
f 205/204/118 204/202/118 168/201/118 
f 169/203/59 170/205/59 206/206/59 
f 206/206/119 205/204/119 169/203/119 
f 170/205/62 171/207/62 207/208/62 
f 207/208/62 206/206/62 170/205/62 
f 171/207/55 172/209/55 208/210/55 
f 208/210/120 207/208/120 171/207/120 
f 172/209/57 173/211/57 209/212/57 
f 209/212/121 208/210/121 172/209/121 
f 173/211/122 174/213/122 210/214/122 
f 210/214/38 209/212/38 173/211/38 
f 174/213/39 175/215/39 211/216/39 
f 211/216/39 210/214/39 174/213/39 
f 175/215/42 176/217/42 212/218/42 
f 212/218/42 211/216/42 175/215/42 
f 176/217/43 177/219/43 213/220/43 
f 213/220/43 212/218/43 176/217/43 
f 177/219/45 178/221/45 214/222/45 
f 214/222/45 213/220/45 177/219/45 
f 178/221/47 179/223/47 215/224/47 
f 215/224/47 214/222/47 178/221/47 
f 179/223/48 180/225/48 216/226/48 
f 216/226/123 215/224/123 179/223/123 
f 180/225/124 165/193/124 201/196/124 
f 201/196/51 216/226/51 180/225/51 
# 216 faces

