# 3ds Max Wavefront OBJ Exporter v0.97b - (c)2007 guruware
# File Created: 10.08.2018 17:31:44

mtllib Railing.mtl

#
# object Gelander014
#

v  13.5496 7.7377 2.8008
v  13.7423 7.7377 0.4630
v  13.7423 6.7239 0.4630
v  13.5496 6.7239 2.8008
v  12.9648 7.7377 5.0731
v  12.9648 6.7239 5.0731
v  11.9842 7.7377 7.2039
v  11.9842 6.7239 7.2039
v  10.6575 7.7377 9.1392
v  10.6575 6.7239 9.1392
v  9.0072 7.7377 10.8062
v  9.0072 6.7239 10.8062
v  7.0987 7.7377 12.1710
v  7.0987 6.7239 12.1710
v  4.9778 7.7377 13.1730
v  4.9778 6.7239 13.1730
v  2.7175 7.7377 13.8027
v  2.7175 6.7239 13.8027
v  0.3818 7.7377 14.0189
v  0.3818 6.7239 14.0189
v  -1.9575 7.7377 13.8376
v  -1.9575 6.7239 13.8376
v  13.5146 7.7377 -1.8723
v  12.8961 7.7377 -4.1350
v  12.8961 6.7239 -4.1350
v  13.5146 6.7239 -1.8723
v  11.8835 7.7377 -6.2515
v  10.5284 7.7377 -8.1662
v  10.5284 6.7239 -8.1662
v  11.8834 6.7239 -6.2515
v  8.8529 7.7377 -9.8088
v  6.9247 7.7377 -11.1445
v  6.9247 6.7239 -11.1445
v  8.8529 6.7239 -9.8088
v  4.7884 7.7377 -12.1150
v  2.5196 7.7377 -12.7107
v  2.5196 6.7239 -12.7107
v  4.7884 6.7239 -12.1150
v  0.1803 7.7377 -12.8920
v  -2.1554 7.7377 -12.6758
v  -2.1554 6.7239 -12.6758
v  0.1803 6.7239 -12.8920
v  -4.2263 7.7377 13.2419
v  -4.2263 6.7239 13.2419
v  -6.3625 7.7377 12.2715
v  -6.3625 6.7239 12.2715
v  -8.2908 7.7377 10.9357
v  -8.2908 6.7239 10.9357
v  -9.9663 7.7377 9.2931
v  -9.9663 6.7239 9.2931
v  -11.3213 7.7377 7.3784
v  -11.3213 6.7239 7.3784
v  -12.3340 7.7377 5.2619
v  -12.3340 6.7239 5.2619
v  -12.9525 7.7377 2.9992
v  -12.9525 6.7239 2.9992
v  -13.1802 7.7377 0.6639
v  -13.1802 6.7239 0.6639
v  -12.9875 7.7377 -1.6738
v  -12.9875 6.7239 -1.6738
v  -12.4027 7.7377 -3.9461
v  -12.4027 6.7239 -3.9461
v  -11.4221 7.7377 -6.0770
v  -11.4221 6.7239 -6.0770
v  -10.0954 7.7377 -8.0123
v  -10.0954 6.7239 -8.0123
v  -8.4451 7.7377 -9.6793
v  -8.4451 6.7239 -9.6793
v  -6.5366 7.7377 -11.0441
v  -6.5366 6.7239 -11.0441
v  -4.4157 7.7377 -12.0461
v  -4.4157 6.7239 -12.0461
# 72 vertices

vn -0.9966 0.0000 -0.0821
vn -0.9684 0.0000 -0.2492
vn -0.9084 0.0000 -0.4181
vn -0.9084 -0.0000 -0.4181
vn -0.8248 -0.0000 -0.5654
vn -0.8248 0.0000 -0.5654
vn -0.7107 0.0000 -0.7035
vn -0.5817 0.0000 -0.8134
vn -0.4272 0.0000 -0.9042
vn -0.2684 0.0000 -0.9633
vn -0.0922 0.0000 -0.9957
vn 0.0773 0.0000 -0.9970
vn -0.9646 0.0000 0.2637
vn -0.9953 0.0000 0.0970
vn -0.8163 0.0000 0.5777
vn -0.9021 0.0000 0.4316
vn -0.5695 0.0000 0.8220
vn -0.7001 0.0000 0.7141
vn -0.2540 0.0000 0.9672
vn -0.4136 0.0000 0.9105
vn 0.0922 0.0000 0.9957
vn -0.0773 0.0000 0.9970
vn 0.2540 0.0000 -0.9672
vn 0.4136 0.0000 -0.9105
vn 0.5695 0.0000 -0.8220
vn 0.7001 0.0000 -0.7141
vn 0.8163 0.0000 -0.5777
vn 0.9021 0.0000 -0.4316
vn 0.9021 -0.0000 -0.4316
vn 0.9646 -0.0000 -0.2637
vn 0.9646 0.0000 -0.2637
vn 0.9953 0.0000 -0.0970
vn 0.9953 -0.0000 -0.0970
vn 0.9966 0.0000 0.0821
vn 0.9684 0.0000 0.2492
vn 0.9084 0.0000 0.4181
vn 0.8248 0.0000 0.5654
vn 0.7107 0.0000 0.7035
vn 0.5817 0.0000 0.8134
vn 0.4272 0.0000 0.9042
vn 0.2684 0.0000 0.9633
# 41 vertex normals

vt 1.0084 0.9128 0.0000
vt -0.0008 0.9128 0.0000
vt -0.0008 0.0329 0.0000
vt 1.0084 0.0329 0.0000
vt 1.0083 0.9125 0.0000
vt -0.0018 0.9125 0.0000
vt -0.0018 0.0326 0.0000
vt 1.0083 0.0326 0.0000
# 8 texture coords

o Gelander014
g Gelander014
usemtl railing
s off
f 1/1/1 2/2/1 3/3/1 
f 3/3/1 4/4/1 1/1/1 
f 5/5/2 1/6/2 4/7/2 
f 4/7/2 6/8/2 5/5/2 
f 7/1/3 5/2/3 6/3/3 
f 6/3/4 8/4/4 7/1/4 
f 9/5/5 7/6/5 8/7/5 
f 8/7/6 10/8/6 9/5/6 
f 11/1/7 9/2/7 10/3/7 
f 10/3/7 12/4/7 11/1/7 
f 13/5/8 11/6/8 12/7/8 
f 12/7/8 14/8/8 13/5/8 
f 15/1/9 13/2/9 14/3/9 
f 14/3/9 16/4/9 15/1/9 
f 17/5/10 15/6/10 16/7/10 
f 16/7/10 18/8/10 17/5/10 
f 19/1/11 17/2/11 18/3/11 
f 18/3/11 20/4/11 19/1/11 
f 21/5/12 19/6/12 20/7/12 
f 20/7/12 22/8/12 21/5/12 
f 23/1/13 24/2/13 25/3/13 
f 25/3/13 26/4/13 23/1/13 
f 2/5/14 23/6/14 26/7/14 
f 26/7/14 3/8/14 2/5/14 
f 27/1/15 28/2/15 29/3/15 
f 29/3/15 30/4/15 27/1/15 
f 24/5/16 27/6/16 30/7/16 
f 30/7/16 25/8/16 24/5/16 
f 31/1/17 32/2/17 33/3/17 
f 33/3/17 34/4/17 31/1/17 
f 28/5/18 31/6/18 34/7/18 
f 34/7/18 29/8/18 28/5/18 
f 35/1/19 36/2/19 37/3/19 
f 37/3/19 38/4/19 35/1/19 
f 32/5/20 35/6/20 38/7/20 
f 38/7/20 33/8/20 32/5/20 
f 39/1/21 40/2/21 41/3/21 
f 41/3/21 42/4/21 39/1/21 
f 36/5/22 39/6/22 42/7/22 
f 42/7/22 37/8/22 36/5/22 
f 43/1/23 21/2/23 22/3/23 
f 22/3/23 44/4/23 43/1/23 
f 45/5/24 43/6/24 44/7/24 
f 44/7/24 46/8/24 45/5/24 
f 47/1/25 45/2/25 46/3/25 
f 46/3/25 48/4/25 47/1/25 
f 49/5/26 47/6/26 48/7/26 
f 48/7/26 50/8/26 49/5/26 
f 51/1/27 49/2/27 50/3/27 
f 50/3/27 52/4/27 51/1/27 
f 53/5/28 51/6/28 52/7/28 
f 52/7/29 54/8/29 53/5/29 
f 55/1/30 53/2/30 54/3/30 
f 54/3/31 56/4/31 55/1/31 
f 57/5/32 55/6/32 56/7/32 
f 56/7/33 58/8/33 57/5/33 
f 59/1/34 57/2/34 58/3/34 
f 58/3/34 60/4/34 59/1/34 
f 61/5/35 59/6/35 60/7/35 
f 60/7/35 62/8/35 61/5/35 
f 63/1/36 61/2/36 62/3/36 
f 62/3/36 64/4/36 63/1/36 
f 65/5/37 63/6/37 64/7/37 
f 64/7/37 66/8/37 65/5/37 
f 67/1/38 65/2/38 66/3/38 
f 66/3/38 68/4/38 67/1/38 
f 69/5/39 67/6/39 68/7/39 
f 68/7/39 70/8/39 69/5/39 
f 71/1/40 69/2/40 70/3/40 
f 70/3/40 72/4/40 71/1/40 
f 40/5/41 71/6/41 72/7/41 
f 72/7/41 41/8/41 40/5/41 
# 72 faces

#
# object Object024
#

v  13.7154 7.7308 0.4632
v  13.5231 7.7308 2.7963
v  13.5231 7.7742 2.7963
v  13.7154 7.7742 0.4632
v  12.9395 7.7308 5.0641
v  12.9395 7.7742 5.0641
v  11.9608 7.7308 7.1907
v  11.9608 7.7742 7.1907
v  10.6368 7.7308 9.1221
v  10.6368 7.7742 9.1221
v  8.9898 7.7308 10.7857
v  8.9898 7.7742 10.7857
v  7.0850 7.7308 12.1478
v  7.0850 7.7742 12.1478
v  4.9684 7.7308 13.1478
v  4.9684 7.7742 13.1478
v  2.7126 7.7308 13.7763
v  2.7126 7.7742 13.7763
v  0.3816 7.7308 13.9920
v  0.3816 7.7742 13.9920
v  -1.9531 7.7308 13.8111
v  -1.9531 7.7742 13.8111
v  12.8709 7.7308 -4.1256
v  13.4881 7.7308 -1.8674
v  13.4881 7.7742 -1.8674
v  12.8709 7.7742 -4.1256
v  10.5079 7.7308 -8.1488
v  11.8603 7.7308 -6.2379
v  11.8603 7.7742 -6.2379
v  10.5079 7.7742 -8.1488
v  6.9114 7.7308 -11.1211
v  8.8357 7.7308 -9.7880
v  8.8357 7.7742 -9.7880
v  6.9114 7.7742 -11.1211
v  2.5152 7.7308 -12.6842
v  4.7794 7.7308 -12.0896
v  4.7794 7.7742 -12.0896
v  2.5152 7.7742 -12.6842
v  -2.1505 7.7308 -12.6494
v  0.1805 7.7308 -12.8651
v  0.1805 7.7742 -12.8651
v  -2.1505 7.7742 -12.6494
v  -4.2173 7.7308 13.2166
v  -4.2173 7.7742 13.2166
v  -6.3493 7.7308 12.2481
v  -6.3493 7.7742 12.2481
v  -8.2736 7.7308 10.9150
v  -8.2736 7.7742 10.9150
v  -9.9458 7.7308 9.2757
v  -9.9458 7.7742 9.2757
v  -11.2982 7.7308 7.3648
v  -11.2982 7.7742 7.3648
v  -12.3088 7.7308 5.2525
v  -12.3088 7.7742 5.2525
v  -12.9260 7.7308 2.9943
v  -12.9260 7.7742 2.9943
v  -13.1533 7.7308 0.6637
v  -13.1533 7.7742 0.6637
v  -12.9610 7.7308 -1.6694
v  -12.9610 7.7742 -1.6694
v  -12.3774 7.7308 -3.9371
v  -12.3774 7.7742 -3.9371
v  -11.3987 7.7308 -6.0637
v  -11.3987 7.7742 -6.0637
v  -10.0747 7.7308 -7.9951
v  -10.0747 7.7742 -7.9951
v  -8.4277 7.7308 -9.6588
v  -8.4277 7.7742 -9.6588
v  -6.5229 7.7308 -11.0209
v  -6.5229 7.7742 -11.0209
v  -4.4063 7.7308 -12.0209
v  -4.4063 7.7742 -12.0209
v  13.5907 7.7742 2.8077
v  13.7839 7.7742 0.4627
v  13.0041 7.7742 5.0870
v  12.0204 7.7742 7.2245
v  10.6896 7.7742 9.1658
v  9.0342 7.7742 10.8379
v  7.1198 7.7742 12.2069
v  4.9923 7.7742 13.2120
v  2.7251 7.7742 13.8437
v  0.3821 7.7742 14.0606
v  -1.9645 7.7742 13.8787
v  13.5556 7.7742 -1.8798
v  12.9352 7.7742 -4.1495
v  11.9194 7.7742 -6.2726
v  10.5601 7.7742 -8.1932
v  8.8794 7.7742 -9.8409
v  6.9452 7.7742 -11.1808
v  4.8024 7.7742 -12.1542
v  2.5266 7.7742 -12.7518
v  0.1800 7.7742 -12.9336
v  -2.1629 7.7742 -12.7168
v  -4.2403 7.7742 13.2812
v  -6.3831 7.7742 12.3077
v  -8.3173 7.7742 10.9678
v  -9.9980 7.7742 9.3202
v  -11.3573 7.7742 7.3995
v  -12.3730 7.7742 5.2764
v  -12.9935 7.7742 3.0067
v  -13.2218 7.7742 0.6642
v  -13.0286 7.7742 -1.6808
v  -12.4420 7.7742 -3.9601
v  -11.4583 7.7742 -6.0976
v  -10.1275 7.7742 -8.0388
v  -8.4721 7.7742 -9.7110
v  -6.5577 7.7742 -11.0800
v  -4.4302 7.7742 -12.0851
v  13.5907 7.7324 2.8077
v  13.7839 7.7324 0.4627
v  13.0041 7.7324 5.0870
v  12.0204 7.7324 7.2245
v  10.6896 7.7324 9.1658
v  9.0342 7.7324 10.8379
v  7.1198 7.7324 12.2069
v  4.9923 7.7324 13.2120
v  2.7251 7.7324 13.8437
v  0.3821 7.7324 14.0606
v  -1.9645 7.7324 13.8787
v  13.5556 7.7324 -1.8798
v  12.9352 7.7324 -4.1495
v  11.9194 7.7324 -6.2726
v  10.5601 7.7324 -8.1932
v  8.8794 7.7324 -9.8409
v  6.9452 7.7324 -11.1808
v  4.8024 7.7324 -12.1542
v  2.5266 7.7324 -12.7518
v  0.1800 7.7324 -12.9336
v  -2.1629 7.7324 -12.7168
v  -4.2403 7.7324 13.2812
v  -6.3831 7.7324 12.3077
v  -8.3173 7.7324 10.9678
v  -9.9980 7.7324 9.3202
v  -11.3573 7.7324 7.3995
v  -12.3731 7.7324 5.2764
v  -12.9935 7.7324 3.0067
v  -13.2218 7.7324 0.6642
v  -13.0286 7.7324 -1.6808
v  -12.4420 7.7324 -3.9601
v  -11.4583 7.7324 -6.0976
v  -10.1275 7.7324 -8.0388
v  -8.4721 7.7324 -9.7110
v  -6.5577 7.7324 -11.0800
v  -4.4302 7.7324 -12.0851
# 144 vertices

vn -0.9966 0.0001 -0.0821
vn -0.9966 -0.0001 -0.0821
vn -0.9684 0.0000 -0.2492
vn -0.9684 0.0001 -0.2492
vn -0.9084 -0.0000 -0.4181
vn -0.9084 0.0000 -0.4181
vn -0.8248 0.0000 -0.5654
vn -0.8248 -0.0000 -0.5654
vn -0.7107 0.0000 -0.7035
vn -0.5817 -0.0001 -0.8134
vn -0.5817 0.0000 -0.8134
vn -0.4272 0.0000 -0.9042
vn -0.4272 -0.0000 -0.9042
vn -0.2684 -0.0000 -0.9633
vn -0.2684 0.0000 -0.9633
vn -0.0922 -0.0000 -0.9957
vn 0.0773 0.0001 -0.9970
vn 0.0773 -0.0000 -0.9970
vn -0.9646 0.0000 0.2637
vn -0.9646 -0.0001 0.2637
vn -0.9953 -0.0001 0.0970
vn -0.9953 0.0001 0.0970
vn -0.8163 0.0000 0.5777
vn -0.8163 -0.0002 0.5777
vn -0.9021 -0.0001 0.4316
vn -0.9021 0.0000 0.4316
vn -0.5695 -0.0000 0.8220
vn -0.5695 0.0000 0.8220
vn -0.7001 -0.0002 0.7141
vn -0.7001 -0.0000 0.7141
vn -0.2540 0.0000 0.9672
vn -0.4136 0.0000 0.9105
vn 0.0922 -0.0001 0.9957
vn 0.0922 -0.0000 0.9957
vn -0.0773 0.0000 0.9970
vn -0.0773 -0.0001 0.9970
vn 0.2540 0.0001 -0.9672
vn 0.4136 -0.0000 -0.9105
vn 0.4136 0.0001 -0.9105
vn 0.5695 0.0000 -0.8220
vn 0.7001 0.0000 -0.7141
vn 0.8163 -0.0001 -0.5777
vn 0.8163 0.0000 -0.5777
vn 0.9021 -0.0001 -0.4316
vn 0.9646 0.0000 -0.2637
vn 0.9646 -0.0001 -0.2637
vn 0.9953 0.0001 -0.0970
vn 0.9966 0.0000 0.0821
vn 0.9966 0.0001 0.0821
vn 0.9684 0.0000 0.2492
vn 0.9084 0.0000 0.4181
vn 0.8248 0.0001 0.5654
vn 0.8248 0.0000 0.5654
vn 0.7107 0.0000 0.7035
vn 0.7107 0.0001 0.7035
vn 0.5817 0.0000 0.8134
vn 0.4272 0.0000 0.9042
vn 0.2684 -0.0000 0.9633
vn 0.2684 0.0000 0.9633
vn 0.0000 1.0000 -0.0000
vn 0.0000 1.0000 0.0000
vn -0.0000 1.0000 0.0000
vn -0.0000 1.0000 -0.0000
vn 0.9684 0.0001 0.2492
vn 0.9084 -0.0000 0.4181
vn 0.9084 0.0001 0.4181
vn 0.8248 -0.0000 0.5654
vn 0.5817 0.0001 0.8134
vn 0.0922 0.0001 0.9957
vn -0.0773 0.0001 0.9970
vn 0.9646 0.0001 -0.2637
vn 0.8163 0.0001 -0.5777
vn 0.9021 0.0000 -0.4316
vn 0.9021 0.0001 -0.4316
vn 0.5695 -0.0000 -0.8220
vn 0.7001 0.0001 -0.7141
vn 0.2540 0.0000 -0.9672
vn 0.2540 -0.0000 -0.9672
vn 0.4136 0.0000 -0.9105
vn -0.0922 0.0001 -0.9957
vn -0.5695 0.0001 0.8220
vn -0.7001 0.0001 0.7141
vn -0.8163 0.0001 0.5777
vn -0.9646 0.0001 0.2637
vn -0.9953 0.0000 0.0970
vn -0.9966 0.0000 -0.0821
vn -0.4272 0.0001 -0.9042
vn -0.2684 0.0001 -0.9633
# 88 vertex normals

vt 16.9560 0.8790 0.0000
vt 17.4346 0.8790 0.0000
vt 17.4346 0.9096 0.0000
vt 16.9560 0.9096 0.0000
vt 18.0618 0.8790 0.0000
vt 18.0618 0.9096 0.0000
vt 18.8099 0.8790 0.0000
vt 18.8099 0.9096 0.0000
vt 19.6508 0.8790 0.0000
vt 19.6508 0.9096 0.0000
vt 20.5552 0.8790 0.0000
vt 20.5552 0.9096 0.0000
vt 21.4954 0.8790 0.0000
vt 21.4954 0.9096 0.0000
vt 22.4470 0.8790 0.0000
vt 22.4470 0.9096 0.0000
vt 0.0004 0.8790 0.0000
vt 0.9373 0.8790 0.0000
vt 0.9373 0.9096 0.0000
vt 0.0004 0.9096 0.0000
vt 1.8284 0.8790 0.0000
vt 1.8284 0.9096 0.0000
vt 2.6564 0.8790 0.0000
vt 2.6564 0.9096 0.0000
vt 16.4446 0.8790 0.0000
vt 16.5590 0.8790 0.0000
vt 16.5590 0.9096 0.0000
vt 16.4446 0.9096 0.0000
vt 16.1245 0.8790 0.0000
vt 16.3567 0.8790 0.0000
vt 16.3567 0.9096 0.0000
vt 16.1245 0.9096 0.0000
vt 15.2367 0.8790 0.0000
vt 15.7456 0.8790 0.0000
vt 15.7456 0.9096 0.0000
vt 15.2367 0.9096 0.0000
vt 13.8930 0.8790 0.0000
vt 14.6140 0.8790 0.0000
vt 14.6140 0.9096 0.0000
vt 13.8930 0.9096 0.0000
vt 12.2237 0.8790 0.0000
vt 13.0904 0.8790 0.0000
vt 13.0904 0.9096 0.0000
vt 12.2237 0.9096 0.0000
vt 3.3973 0.8790 0.0000
vt 3.3973 0.9096 0.0000
vt 4.0302 0.8790 0.0000
vt 4.0302 0.9096 0.0000
vt 4.5460 0.8790 0.0000
vt 4.5460 0.9096 0.0000
vt 4.9343 0.8790 0.0000
vt 4.9343 0.9096 0.0000
vt 5.1789 0.8790 0.0000
vt 5.1789 0.9096 0.0000
vt 5.2717 0.8790 0.0000
vt 5.2717 0.9096 0.0000
vt 5.3869 0.8790 0.0000
vt 5.3869 0.9096 0.0000
vt 5.7081 0.8790 0.0000
vt 5.7081 0.9096 0.0000
vt 6.2218 0.8790 0.0000
vt 6.2218 0.9096 0.0000
vt 6.8862 0.8790 0.0000
vt 6.8862 0.9096 0.0000
vt 7.6624 0.8790 0.0000
vt 7.6624 0.9096 0.0000
vt 8.5197 0.8790 0.0000
vt 8.5197 0.9096 0.0000
vt 9.4323 0.8790 0.0000
vt 9.4323 0.9096 0.0000
vt 10.3723 0.8790 0.0000
vt 10.3723 0.9096 0.0000
vt 11.3109 0.8790 0.0000
vt 11.3109 0.9096 0.0000
vt 18.1336 0.8790 0.0000
vt 18.6251 0.8790 0.0000
vt 18.6251 0.9096 0.0000
vt 18.1336 0.9096 0.0000
vt 19.1912 0.8790 0.0000
vt 19.1912 0.9096 0.0000
vt 19.8255 0.8790 0.0000
vt 19.8255 0.9096 0.0000
vt 20.5098 0.8790 0.0000
vt 20.5098 0.9096 0.0000
vt 21.2220 0.8790 0.0000
vt 21.2220 0.9096 0.0000
vt 21.9399 0.8790 0.0000
vt 21.9399 0.9096 0.0000
vt 22.6455 0.8790 0.0000
vt 22.6455 0.9096 0.0000
vt 23.3245 0.8790 0.0000
vt 23.3245 0.9096 0.0000
vt 23.9675 0.8790 0.0000
vt 23.9675 0.9096 0.0000
vt 24.5737 0.8790 0.0000
vt 24.5737 0.9096 0.0000
vt 17.2495 0.8790 0.0000
vt 17.6785 0.8790 0.0000
vt 17.6785 0.9096 0.0000
vt 17.2495 0.9096 0.0000
vt 16.1436 0.8790 0.0000
vt 16.7567 0.8790 0.0000
vt 16.7567 0.9096 0.0000
vt 16.1436 0.9096 0.0000
vt 14.4572 0.8790 0.0000
vt 15.3798 0.8790 0.0000
vt 15.3798 0.9096 0.0000
vt 14.4572 0.9096 0.0000
vt 12.1789 0.8790 0.0000
vt 13.3841 0.8790 0.0000
vt 13.3841 0.9096 0.0000
vt 12.1789 0.9096 0.0000
vt 9.4885 0.8790 0.0000
vt 10.8695 0.8790 0.0000
vt 10.8695 0.9096 0.0000
vt 9.4885 0.9096 0.0000
vt 25.1466 0.8790 0.0000
vt 25.1466 0.9096 0.0000
vt 25.6860 0.8790 0.0000
vt 25.6860 0.9096 0.0000
vt 26.1893 0.8790 0.0000
vt 26.1893 0.9096 0.0000
vt 26.6521 0.8790 0.0000
vt 26.6521 0.9096 0.0000
vt 27.0712 0.8790 0.0000
vt 27.0712 0.9096 0.0000
vt 27.4470 0.8790 0.0000
vt 27.4470 0.9096 0.0000
vt 27.7856 0.8790 0.0000
vt 27.7856 0.9096 0.0000
vt 28.1080 0.8790 0.0000
vt 28.1080 0.9096 0.0000
vt 0.9538 0.8790 0.0000
vt 0.9538 0.9096 0.0000
vt 1.9204 0.8790 0.0000
vt 1.9204 0.9096 0.0000
vt 2.9571 0.8790 0.0000
vt 2.9571 0.9096 0.0000
vt 4.0971 0.8790 0.0000
vt 4.0971 0.9096 0.0000
vt 5.3451 0.8790 0.0000
vt 5.3451 0.9096 0.0000
vt 6.6828 0.8790 0.0000
vt 6.6828 0.9096 0.0000
vt 8.0779 0.8790 0.0000
vt 8.0779 0.9096 0.0000
vt 33.7759 0.9096 0.0000
vt 31.5410 0.9096 0.0000
vt 31.5410 0.8790 0.0000
vt 33.7759 0.8790 0.0000
vt 29.3581 0.9096 0.0000
vt 29.3581 0.8790 0.0000
vt 27.2773 0.9096 0.0000
vt 27.2773 0.8790 0.0000
vt 25.2951 0.9096 0.0000
vt 25.2951 0.8790 0.0000
vt 23.4084 0.9096 0.0000
vt 23.4084 0.8790 0.0000
vt 21.6146 0.9096 0.0000
vt 21.6146 0.8790 0.0000
vt 19.9148 0.9096 0.0000
vt 19.9148 0.8790 0.0000
vt 18.3091 0.9096 0.0000
vt 18.3091 0.8790 0.0000
vt 16.7968 0.9096 0.0000
vt 16.7968 0.8790 0.0000
vt 15.3881 0.9096 0.0000
vt 15.3881 0.8790 0.0000
vt 38.6177 0.9096 0.0000
vt 36.1590 0.9096 0.0000
vt 36.1590 0.8790 0.0000
vt 38.6177 0.8790 0.0000
vt 43.6583 0.9096 0.0000
vt 41.1240 0.9096 0.0000
vt 41.1240 0.8790 0.0000
vt 43.6583 0.8790 0.0000
vt 48.7599 0.9096 0.0000
vt 46.2082 0.9096 0.0000
vt 46.2082 0.8790 0.0000
vt 48.7599 0.8790 0.0000
vt 53.8530 0.9096 0.0000
vt 51.3077 0.9096 0.0000
vt 51.3077 0.8790 0.0000
vt 53.8530 0.8790 0.0000
vt 2.4689 0.9096 0.0000
vt 1.2353 0.9096 0.0000
vt 1.2353 0.8790 0.0000
vt 2.4689 0.8790 0.0000
vt 14.1030 0.9096 0.0000
vt 14.1030 0.8790 0.0000
vt 12.9627 0.9096 0.0000
vt 12.9627 0.8790 0.0000
vt 11.9830 0.9096 0.0000
vt 11.9830 0.8790 0.0000
vt 11.1837 0.9096 0.0000
vt 11.1837 0.8790 0.0000
vt 10.5818 0.9096 0.0000
vt 10.5818 0.8790 0.0000
vt 10.1780 0.9096 0.0000
vt 10.1780 0.8790 0.0000
vt 9.9228 0.9096 0.0000
vt 9.9228 0.8790 0.0000
vt 9.6675 0.9096 0.0000
vt 9.6675 0.8790 0.0000
vt 9.2609 0.9096 0.0000
vt 9.2609 0.8790 0.0000
vt 8.6604 0.9096 0.0000
vt 8.6604 0.8790 0.0000
vt 7.8915 0.9096 0.0000
vt 7.8915 0.8790 0.0000
vt 6.9873 0.9096 0.0000
vt 6.9873 0.8790 0.0000
vt 5.9717 0.9096 0.0000
vt 5.9717 0.8790 0.0000
vt 4.8651 0.9096 0.0000
vt 4.8651 0.8790 0.0000
vt 3.6886 0.9096 0.0000
vt 3.6886 0.8790 0.0000
# 218 texture coords

o Object024
g Object024
usemtl railing
s off
f 73/9/42 74/10/42 75/11/42 
f 75/11/43 76/12/43 73/9/43 
f 74/10/44 77/13/44 78/14/44 
f 78/14/45 75/11/45 74/10/45 
f 77/13/46 79/15/46 80/16/46 
f 80/16/47 78/14/47 77/13/47 
f 79/15/48 81/17/48 82/18/48 
f 82/18/49 80/16/49 79/15/49 
f 81/17/50 83/19/50 84/20/50 
f 84/20/50 82/18/50 81/17/50 
f 83/19/51 85/21/51 86/22/51 
f 86/22/52 84/20/52 83/19/52 
f 85/21/53 87/23/53 88/24/53 
f 88/24/54 86/22/54 85/21/54 
f 87/25/55 89/26/55 90/27/55 
f 90/27/56 88/28/56 87/25/56 
f 89/26/57 91/29/57 92/30/57 
f 92/30/57 90/27/57 89/26/57 
f 91/29/58 93/31/58 94/32/58 
f 94/32/59 92/30/59 91/29/59 
f 95/33/60 96/34/60 97/35/60 
f 97/35/61 98/36/61 95/33/61 
f 96/34/62 73/9/62 76/12/62 
f 76/12/63 97/35/63 96/34/63 
f 99/37/64 100/38/64 101/39/64 
f 101/39/65 102/40/65 99/37/65 
f 100/38/66 95/33/66 98/36/66 
f 98/36/67 101/39/67 100/38/67 
f 103/41/68 104/42/68 105/43/68 
f 105/43/69 106/44/69 103/41/69 
f 104/42/70 99/37/70 102/40/70 
f 102/40/71 105/43/71 104/42/71 
f 107/45/72 108/46/72 109/47/72 
f 109/47/72 110/48/72 107/45/72 
f 108/46/73 103/41/73 106/44/73 
f 106/44/73 109/47/73 108/46/73 
f 111/49/74 112/50/74 113/51/74 
f 113/51/75 114/52/75 111/49/75 
f 112/50/76 107/45/76 110/48/76 
f 110/48/77 113/51/77 112/50/77 
f 93/31/78 115/53/78 116/54/78 
f 116/54/78 94/32/78 93/31/78 
f 115/53/79 117/55/79 118/56/79 
f 118/56/80 116/54/80 115/53/80 
f 117/55/81 119/57/81 120/58/81 
f 120/58/81 118/56/81 117/55/81 
f 119/57/82 121/59/82 122/60/82 
f 122/60/82 120/58/82 119/57/82 
f 121/59/83 123/61/83 124/62/83 
f 124/62/84 122/60/84 121/59/84 
f 123/61/85 125/63/85 126/64/85 
f 126/64/85 124/62/85 123/61/85 
f 125/63/86 127/65/86 128/66/86 
f 128/66/87 126/64/87 125/63/87 
f 127/65/88 129/67/88 130/68/88 
f 130/68/88 128/66/88 127/65/88 
f 129/67/89 131/69/89 132/70/89 
f 132/70/90 130/68/90 129/67/90 
f 131/69/91 133/71/91 134/72/91 
f 134/72/91 132/70/91 131/69/91 
f 133/71/92 135/73/92 136/74/92 
f 136/74/92 134/72/92 133/71/92 
f 135/73/93 137/75/93 138/76/93 
f 138/76/94 136/74/94 135/73/94 
f 137/75/95 139/77/95 140/78/95 
f 140/78/96 138/76/96 137/75/96 
f 139/77/97 141/79/97 142/80/97 
f 142/80/97 140/78/97 139/77/97 
f 141/79/98 143/81/98 144/82/98 
f 144/82/98 142/80/98 141/79/98 
f 143/81/99 111/49/99 114/52/99 
f 114/52/100 144/82/100 143/81/100 
f 76/83/101 75/84/101 145/85/101 
f 145/85/102 146/86/102 76/83/102 
f 75/84/102 78/87/102 147/88/102 
f 147/88/103 145/85/103 75/84/103 
f 78/87/102 80/89/102 148/90/102 
f 148/90/102 147/88/102 78/87/102 
f 80/89/102 82/91/102 149/92/102 
f 149/92/102 148/90/102 80/89/102 
f 82/91/102 84/93/102 150/94/102 
f 150/94/102 149/92/102 82/91/102 
f 84/93/102 86/95/102 151/96/102 
f 151/96/102 150/94/102 84/93/102 
f 86/95/102 88/97/102 152/98/102 
f 152/98/102 151/96/102 86/95/102 
f 88/97/102 90/99/102 153/100/102 
f 153/100/102 152/98/102 88/97/102 
f 90/99/102 92/101/102 154/102/102 
f 154/102/102 153/100/102 90/99/102 
f 92/101/103 94/103/103 155/104/103 
f 155/104/103 154/102/103 92/101/103 
f 98/105/101 97/106/101 156/107/101 
f 156/107/101 157/108/101 98/105/101 
f 97/106/101 76/83/101 146/86/101 
f 146/86/101 156/107/101 97/106/101 
f 102/109/101 101/110/101 158/111/101 
f 158/111/101 159/112/101 102/109/101 
f 101/110/101 98/105/101 157/108/101 
f 157/108/101 158/111/101 101/110/101 
f 106/113/101 105/114/101 160/115/101 
f 160/115/101 161/116/101 106/113/101 
f 105/114/101 102/109/101 159/112/101 
f 159/112/101 160/115/101 105/114/101 
f 110/117/101 109/118/101 162/119/101 
f 162/119/101 163/120/101 110/117/101 
f 109/118/101 106/113/101 161/116/101 
f 161/116/101 162/119/101 109/118/101 
f 114/121/104 113/122/104 164/123/104 
f 164/123/104 165/124/104 114/121/104 
f 113/122/101 110/117/101 163/120/101 
f 163/120/101 164/123/101 113/122/101 
f 94/103/103 116/125/103 166/126/103 
f 166/126/103 155/104/103 94/103/103 
f 116/125/103 118/127/103 167/128/103 
f 167/128/103 166/126/103 116/125/103 
f 118/127/103 120/129/103 168/130/103 
f 168/130/103 167/128/103 118/127/103 
f 120/129/103 122/131/103 169/132/103 
f 169/132/103 168/130/103 120/129/103 
f 122/131/103 124/133/103 170/134/103 
f 170/134/103 169/132/103 122/131/103 
f 124/133/103 126/135/103 171/136/103 
f 171/136/103 170/134/103 124/133/103 
f 126/135/103 128/137/103 172/138/103 
f 172/138/103 171/136/103 126/135/103 
f 128/137/103 130/139/103 173/140/103 
f 173/140/103 172/138/103 128/137/103 
f 130/25/104 132/141/104 174/142/104 
f 174/142/104 173/28/104 130/25/104 
f 132/141/104 134/143/104 175/144/104 
f 175/144/104 174/142/104 132/141/104 
f 134/143/104 136/145/104 176/146/104 
f 176/146/104 175/144/104 134/143/104 
f 136/145/104 138/147/104 177/148/104 
f 177/148/104 176/146/104 136/145/104 
f 138/147/104 140/149/104 178/150/104 
f 178/150/104 177/148/104 138/147/104 
f 140/149/104 142/151/104 179/152/104 
f 179/152/104 178/150/104 140/149/104 
f 142/151/104 144/153/104 180/154/104 
f 180/154/104 179/152/104 142/151/104 
f 144/153/104 114/121/104 165/124/104 
f 165/124/104 180/154/104 144/153/104 
f 146/155/89 145/156/89 181/157/89 
f 181/157/90 182/158/90 146/155/90 
f 145/156/105 147/159/105 183/160/105 
f 183/160/91 181/157/91 145/156/91 
f 147/159/106 148/161/106 184/162/106 
f 184/162/107 183/160/107 147/159/107 
f 148/161/93 149/163/93 185/164/93 
f 185/164/108 184/162/108 148/161/108 
f 149/163/96 150/165/96 186/166/96 
f 186/166/96 185/164/96 149/163/96 
f 150/165/97 151/167/97 187/168/97 
f 187/168/109 186/166/109 150/165/109 
f 151/167/98 152/169/98 188/170/98 
f 188/170/98 187/168/98 151/167/98 
f 152/169/99 153/171/99 189/172/99 
f 189/172/100 188/170/100 152/169/100 
f 153/171/110 154/173/110 190/174/110 
f 190/174/75 189/172/75 153/171/75 
f 154/173/76 155/175/76 191/176/76 
f 191/176/111 190/174/111 154/173/111 
f 157/177/112 156/178/112 192/179/112 
f 192/179/86 193/180/86 157/177/86 
f 156/178/88 146/155/88 182/158/88 
f 182/158/88 192/179/88 156/178/88 
f 159/181/113 158/182/113 194/183/113 
f 194/183/113 195/184/113 159/181/113 
f 158/182/114 157/177/114 193/180/114 
f 193/180/115 194/183/115 158/182/115 
f 161/185/81 160/186/81 196/187/81 
f 196/187/116 197/188/116 161/185/116 
f 160/186/117 159/181/117 195/184/117 
f 195/184/82 196/187/82 160/186/82 
f 163/189/118 162/190/118 198/191/118 
f 198/191/119 199/192/119 163/189/119 
f 162/190/79 161/185/79 197/188/79 
f 197/188/120 198/191/120 162/190/120 
f 165/193/121 164/194/121 200/195/121 
f 200/195/121 201/196/121 165/193/121 
f 164/194/59 163/28/59 199/25/59 
f 199/25/58 200/195/58 164/194/58 
f 155/175/72 166/197/72 202/198/72 
f 202/198/72 191/176/72 155/175/72 
f 166/197/73 167/199/73 203/200/73 
f 203/200/73 202/198/73 166/197/73 
f 167/199/122 168/201/122 204/202/122 
f 204/202/69 203/200/69 167/199/69 
f 168/201/123 169/203/123 205/204/123 
f 205/204/123 204/202/123 168/201/123 
f 169/203/64 170/205/64 206/206/64 
f 206/206/124 205/204/124 169/203/124 
f 170/205/67 171/207/67 207/208/67 
f 207/208/67 206/206/67 170/205/67 
f 171/207/60 172/209/60 208/210/60 
f 208/210/125 207/208/125 171/207/125 
f 172/209/62 173/211/62 209/212/62 
f 209/212/126 208/210/126 172/209/126 
f 173/211/127 174/213/127 210/214/127 
f 210/214/43 209/212/43 173/211/43 
f 174/213/44 175/215/44 211/216/44 
f 211/216/44 210/214/44 174/213/44 
f 175/215/47 176/217/47 212/218/47 
f 212/218/47 211/216/47 175/215/47 
f 176/217/48 177/219/48 213/220/48 
f 213/220/48 212/218/48 176/217/48 
f 177/219/50 178/221/50 214/222/50 
f 214/222/50 213/220/50 177/219/50 
f 178/221/52 179/223/52 215/224/52 
f 215/224/52 214/222/52 178/221/52 
f 179/223/53 180/225/53 216/226/53 
f 216/226/128 215/224/128 179/223/128 
f 180/225/129 165/193/129 201/196/129 
f 201/196/56 216/226/56 180/225/56 
# 216 faces

