# 3ds Max Wavefront OBJ Exporter v0.97b - (c)2007 guruware
# File Created: 28.12.2017 15:08:45

mtllib Railing.mtl

#
# object Gelander014
#

v  13.5482 6.7233 2.8005
v  13.5482 7.8261 2.8005
v  13.7409 7.8261 0.4630
v  13.7409 6.7233 0.4630
v  12.9635 6.7233 5.0726
v  12.9635 7.8261 5.0726
v  11.9830 6.7233 7.2032
v  11.9830 7.8261 7.2032
v  10.6565 6.7233 9.1383
v  10.6565 7.8261 9.1383
v  9.0063 6.7233 10.8051
v  9.0063 7.8261 10.8051
v  7.0980 6.7233 12.1698
v  7.0980 7.8261 12.1698
v  4.9773 6.7233 13.1717
v  4.9773 7.8261 13.1717
v  2.7172 6.7233 13.8014
v  2.7172 7.8261 13.8014
v  0.3818 6.7233 14.0175
v  0.3818 7.8261 14.0175
v  -1.9573 6.7233 13.8363
v  -1.9573 7.8261 13.8363
v  13.5132 6.7233 -1.8721
v  13.5132 7.8261 -1.8721
v  12.8948 7.8261 -4.1345
v  12.8948 6.7233 -4.1345
v  11.8823 6.7233 -6.2509
v  11.8823 7.8261 -6.2509
v  10.5273 7.8261 -8.1654
v  10.5273 6.7233 -8.1654
v  8.8520 6.7233 -9.8078
v  8.8520 7.8261 -9.8078
v  6.9240 7.8261 -11.1434
v  6.9240 6.7233 -11.1434
v  4.7879 6.7233 -12.1138
v  4.7879 7.8261 -12.1138
v  2.5194 7.8261 -12.7094
v  2.5194 6.7233 -12.7094
v  0.1803 6.7233 -12.8907
v  0.1803 7.8261 -12.8907
v  -2.1552 7.8261 -12.6745
v  -2.1552 6.7233 -12.6745
v  -4.2259 6.7233 13.2406
v  -4.2259 7.8261 13.2406
v  -6.3619 6.7233 12.2702
v  -6.3619 7.8261 12.2702
v  -8.2899 6.7233 10.9346
v  -8.2899 7.8261 10.9346
v  -9.9653 6.7233 9.2922
v  -9.9653 7.8261 9.2922
v  -11.3202 6.7233 7.3777
v  -11.3202 7.8261 7.3777
v  -12.3328 6.7233 5.2614
v  -12.3328 7.8261 5.2614
v  -12.9512 6.7233 2.9989
v  -12.9512 7.8261 2.9989
v  -13.1789 6.7233 0.6639
v  -13.1789 7.8261 0.6639
v  -12.9862 6.7233 -1.6737
v  -12.9862 7.8261 -1.6737
v  -12.4015 6.7233 -3.9457
v  -12.4015 7.8261 -3.9457
v  -11.4209 6.7233 -6.0764
v  -11.4209 7.8261 -6.0764
v  -10.0944 6.7233 -8.0115
v  -10.0944 7.8261 -8.0115
v  -8.4443 6.7233 -9.6783
v  -8.4443 7.8261 -9.6783
v  -6.5359 6.7233 -11.0430
v  -6.5359 7.8261 -11.0430
v  -4.4152 6.7233 -12.0449
v  -4.4152 7.8261 -12.0449
# 72 vertices

vn -0.9966 0.0000 -0.0821
vn -0.9684 0.0000 -0.2492
vn -0.9084 0.0000 -0.4181
vn -0.8248 0.0000 -0.5654
vn -0.7107 0.0000 -0.7035
vn -0.5817 0.0000 -0.8134
vn -0.4272 0.0000 -0.9042
vn -0.2684 0.0000 -0.9633
vn -0.0922 0.0000 -0.9957
vn 0.0773 0.0000 -0.9970
vn -0.9646 0.0000 0.2637
vn -0.9953 0.0000 0.0970
vn -0.8163 0.0000 0.5777
vn -0.9021 0.0000 0.4316
vn -0.5695 0.0000 0.8220
vn -0.7001 0.0000 0.7141
vn -0.2540 0.0000 0.9672
vn -0.4136 0.0000 0.9105
vn 0.0922 0.0000 0.9957
vn -0.0773 0.0000 0.9970
vn 0.2540 0.0000 -0.9672
vn 0.4136 0.0000 -0.9105
vn 0.5695 0.0000 -0.8220
vn 0.7001 0.0000 -0.7141
vn 0.8163 0.0000 -0.5777
vn 0.9021 0.0000 -0.4316
vn 0.9646 0.0000 -0.2637
vn 0.9953 0.0000 -0.0970
vn 0.9966 0.0000 0.0821
vn 0.9684 0.0000 0.2492
vn 0.9084 0.0000 0.4181
vn 0.8248 0.0000 0.5654
vn 0.7107 0.0000 0.7035
vn 0.5817 0.0000 0.8134
vn 0.4272 0.0000 0.9042
vn 0.2684 0.0000 0.9633
# 36 vertex normals

vt 1.0084 0.0329 0.0000
vt 1.0084 0.9901 0.0000
vt -0.0008 0.9901 0.0000
vt -0.0008 0.0329 0.0000
vt 1.0083 0.0326 0.0000
vt 1.0083 0.9898 0.0000
vt -0.0018 0.9898 0.0000
vt -0.0018 0.0326 0.0000
# 8 texture coords

g Gelander014
usemtl railing
s off
f 1/1/1 2/2/1 3/3/1 
f 3/3/1 4/4/1 1/1/1 
f 5/5/2 6/6/2 2/7/2 
f 2/7/2 1/8/2 5/5/2 
f 7/1/3 8/2/3 6/3/3 
f 6/3/3 5/4/3 7/1/3 
f 9/5/4 10/6/4 8/7/4 
f 8/7/4 7/8/4 9/5/4 
f 11/1/5 12/2/5 10/3/5 
f 10/3/5 9/4/5 11/1/5 
f 13/5/6 14/6/6 12/7/6 
f 12/7/6 11/8/6 13/5/6 
f 15/1/7 16/2/7 14/3/7 
f 14/3/7 13/4/7 15/1/7 
f 17/5/8 18/6/8 16/7/8 
f 16/7/8 15/8/8 17/5/8 
f 19/1/9 20/2/9 18/3/9 
f 18/3/9 17/4/9 19/1/9 
f 21/5/10 22/6/10 20/7/10 
f 20/7/10 19/8/10 21/5/10 
f 23/1/11 24/2/11 25/3/11 
f 25/3/11 26/4/11 23/1/11 
f 4/5/12 3/6/12 24/7/12 
f 24/7/12 23/8/12 4/5/12 
f 27/1/13 28/2/13 29/3/13 
f 29/3/13 30/4/13 27/1/13 
f 26/5/14 25/6/14 28/7/14 
f 28/7/14 27/8/14 26/5/14 
f 31/1/15 32/2/15 33/3/15 
f 33/3/15 34/4/15 31/1/15 
f 30/5/16 29/6/16 32/7/16 
f 32/7/16 31/8/16 30/5/16 
f 35/1/17 36/2/17 37/3/17 
f 37/3/17 38/4/17 35/1/17 
f 34/5/18 33/6/18 36/7/18 
f 36/7/18 35/8/18 34/5/18 
f 39/1/19 40/2/19 41/3/19 
f 41/3/19 42/4/19 39/1/19 
f 38/5/20 37/6/20 40/7/20 
f 40/7/20 39/8/20 38/5/20 
f 43/1/21 44/2/21 22/3/21 
f 22/3/21 21/4/21 43/1/21 
f 45/5/22 46/6/22 44/7/22 
f 44/7/22 43/8/22 45/5/22 
f 47/1/23 48/2/23 46/3/23 
f 46/3/23 45/4/23 47/1/23 
f 49/5/24 50/6/24 48/7/24 
f 48/7/24 47/8/24 49/5/24 
f 51/1/25 52/2/25 50/3/25 
f 50/3/25 49/4/25 51/1/25 
f 53/5/26 54/6/26 52/7/26 
f 52/7/26 51/8/26 53/5/26 
f 55/1/27 56/2/27 54/3/27 
f 54/3/27 53/4/27 55/1/27 
f 57/5/28 58/6/28 56/7/28 
f 56/7/28 55/8/28 57/5/28 
f 59/1/29 60/2/29 58/3/29 
f 58/3/29 57/4/29 59/1/29 
f 61/5/30 62/6/30 60/7/30 
f 60/7/30 59/8/30 61/5/30 
f 63/1/31 64/2/31 62/3/31 
f 62/3/31 61/4/31 63/1/31 
f 65/5/32 66/6/32 64/7/32 
f 64/7/32 63/8/32 65/5/32 
f 67/1/33 68/2/33 66/3/33 
f 66/3/33 65/4/33 67/1/33 
f 69/5/34 70/6/34 68/7/34 
f 68/7/34 67/8/34 69/5/34 
f 71/1/35 72/2/35 70/3/35 
f 70/3/35 69/4/35 71/1/35 
f 42/5/36 41/6/36 72/7/36 
f 72/7/36 71/8/36 42/5/36 
# 72 faces

