# 3ds Max Wavefront OBJ Exporter v0.97b - (c)2007 guruware
# File Created: 18.12.2017 20:36:40

mtllib Railling.mtl

#
# object Gelander014
#

v  1.4553 6.7233 -17.4340
v  1.4553 7.8261 -17.4340
v  1.6480 7.8261 -19.7716
v  1.6480 6.7233 -19.7716
v  0.8706 6.7233 -15.1620
v  0.8706 7.8261 -15.1620
v  -0.1099 6.7233 -13.0313
v  -0.1099 7.8261 -13.0313
v  -1.4364 6.7233 -11.0962
v  -1.4364 7.8261 -11.0962
v  -3.0866 6.7233 -9.4294
v  -3.0866 7.8261 -9.4294
v  -4.9949 6.7233 -8.0647
v  -4.9949 7.8261 -8.0647
v  -7.1156 6.7233 -7.0628
v  -7.1156 7.8261 -7.0628
v  -9.3757 6.7233 -6.4332
v  -9.3757 7.8261 -6.4332
v  -11.7111 6.7233 -6.2170
v  -11.7111 7.8261 -6.2170
v  -14.0502 6.7233 -6.3983
v  -14.0502 7.8261 -6.3983
v  1.4204 6.7233 -22.1066
v  1.4204 7.8261 -22.1066
v  0.8019 7.8261 -24.3691
v  0.8019 6.7233 -24.3691
v  -0.2106 6.7233 -26.4854
v  -0.2106 7.8261 -26.4854
v  -1.5656 7.8261 -28.3999
v  -1.5656 6.7233 -28.3999
v  -3.2409 6.7233 -30.0423
v  -3.2409 7.8261 -30.0423
v  -5.1689 7.8261 -31.3779
v  -5.1689 6.7233 -31.3779
v  -7.3050 6.7233 -32.3483
v  -7.3050 7.8261 -32.3483
v  -9.5735 7.8261 -32.9439
v  -9.5735 6.7233 -32.9439
v  -11.9126 6.7233 -33.1252
v  -11.9126 7.8261 -33.1252
v  -14.2481 7.8261 -32.9091
v  -14.2481 6.7233 -32.9091
v  -16.3188 6.7233 -6.9939
v  -16.3188 7.8261 -6.9939
v  -18.4548 6.7233 -7.9643
v  -18.4548 7.8261 -7.9643
v  -20.3828 6.7233 -9.2999
v  -20.3828 7.8261 -9.2999
v  -22.0582 6.7233 -10.9423
v  -22.0582 7.8261 -10.9423
v  -23.4131 6.7233 -12.8568
v  -23.4131 7.8261 -12.8568
v  -24.4257 6.7233 -14.9732
v  -24.4257 7.8261 -14.9732
v  -25.0441 6.7233 -17.2356
v  -25.0441 7.8261 -17.2356
v  -25.2717 6.7233 -19.5706
v  -25.2718 7.8261 -19.5706
v  -25.0791 6.7233 -21.9082
v  -25.0791 7.8261 -21.9082
v  -24.4944 6.7233 -24.1803
v  -24.4944 7.8261 -24.1803
v  -23.5138 6.7233 -26.3109
v  -23.5138 7.8261 -26.3109
v  -22.1873 6.7233 -28.2460
v  -22.1873 7.8261 -28.2460
v  -20.5372 6.7233 -29.9128
v  -20.5372 7.8261 -29.9128
v  -18.6288 6.7233 -31.2775
v  -18.6288 7.8261 -31.2775
v  -16.5081 6.7233 -32.2794
v  -16.5081 7.8261 -32.2794
# 72 vertices

vn -0.9966 0.0000 -0.0821
vn -0.9684 0.0000 -0.2492
vn -0.9084 0.0000 -0.4181
vn -0.8248 0.0000 -0.5654
vn -0.7107 0.0000 -0.7035
vn -0.5817 0.0000 -0.8134
vn -0.4272 0.0000 -0.9042
vn -0.2684 0.0000 -0.9633
vn -0.0922 0.0000 -0.9957
vn 0.0773 0.0000 -0.9970
vn -0.9646 0.0000 0.2637
vn -0.9953 0.0000 0.0970
vn -0.8163 0.0000 0.5777
vn -0.9021 0.0000 0.4316
vn -0.5695 0.0000 0.8220
vn -0.7001 0.0000 0.7141
vn -0.2540 0.0000 0.9672
vn -0.4136 0.0000 0.9105
vn 0.0922 0.0000 0.9957
vn -0.0773 0.0000 0.9970
vn 0.2540 0.0000 -0.9672
vn 0.4136 0.0000 -0.9105
vn 0.5695 0.0000 -0.8220
vn 0.7001 0.0000 -0.7141
vn 0.8163 0.0000 -0.5777
vn 0.9021 0.0000 -0.4316
vn 0.9646 0.0000 -0.2637
vn 0.9953 0.0000 -0.0970
vn 0.9966 0.0000 0.0821
vn 0.9684 0.0000 0.2492
vn 0.9084 0.0000 0.4181
vn 0.8248 0.0000 0.5654
vn 0.7107 0.0000 0.7035
vn 0.5817 0.0000 0.8134
vn 0.4272 0.0000 0.9042
vn 0.2684 0.0000 0.9633
# 36 vertex normals

vt 1.0084 0.0329 0.0000
vt 1.0084 0.9901 0.0000
vt -0.0008 0.9901 0.0000
vt -0.0008 0.0329 0.0000
vt 1.0083 0.0326 0.0000
vt 1.0083 0.9898 0.0000
vt -0.0018 0.9898 0.0000
vt -0.0018 0.0326 0.0000
# 8 texture coords

g Gelander014
usemtl railing
s off
f 1/1/1 2/2/1 3/3/1 
f 3/3/1 4/4/1 1/1/1 
f 5/5/2 6/6/2 2/7/2 
f 2/7/2 1/8/2 5/5/2 
f 7/1/3 8/2/3 6/3/3 
f 6/3/3 5/4/3 7/1/3 
f 9/5/4 10/6/4 8/7/4 
f 8/7/4 7/8/4 9/5/4 
f 11/1/5 12/2/5 10/3/5 
f 10/3/5 9/4/5 11/1/5 
f 13/5/6 14/6/6 12/7/6 
f 12/7/6 11/8/6 13/5/6 
f 15/1/7 16/2/7 14/3/7 
f 14/3/7 13/4/7 15/1/7 
f 17/5/8 18/6/8 16/7/8 
f 16/7/8 15/8/8 17/5/8 
f 19/1/9 20/2/9 18/3/9 
f 18/3/9 17/4/9 19/1/9 
f 21/5/10 22/6/10 20/7/10 
f 20/7/10 19/8/10 21/5/10 
f 23/1/11 24/2/11 25/3/11 
f 25/3/11 26/4/11 23/1/11 
f 4/5/12 3/6/12 24/7/12 
f 24/7/12 23/8/12 4/5/12 
f 27/1/13 28/2/13 29/3/13 
f 29/3/13 30/4/13 27/1/13 
f 26/5/14 25/6/14 28/7/14 
f 28/7/14 27/8/14 26/5/14 
f 31/1/15 32/2/15 33/3/15 
f 33/3/15 34/4/15 31/1/15 
f 30/5/16 29/6/16 32/7/16 
f 32/7/16 31/8/16 30/5/16 
f 35/1/17 36/2/17 37/3/17 
f 37/3/17 38/4/17 35/1/17 
f 34/5/18 33/6/18 36/7/18 
f 36/7/18 35/8/18 34/5/18 
f 39/1/19 40/2/19 41/3/19 
f 41/3/19 42/4/19 39/1/19 
f 38/5/20 37/6/20 40/7/20 
f 40/7/20 39/8/20 38/5/20 
f 43/1/21 44/2/21 22/3/21 
f 22/3/21 21/4/21 43/1/21 
f 45/5/22 46/6/22 44/7/22 
f 44/7/22 43/8/22 45/5/22 
f 47/1/23 48/2/23 46/3/23 
f 46/3/23 45/4/23 47/1/23 
f 49/5/24 50/6/24 48/7/24 
f 48/7/24 47/8/24 49/5/24 
f 51/1/25 52/2/25 50/3/25 
f 50/3/25 49/4/25 51/1/25 
f 53/5/26 54/6/26 52/7/26 
f 52/7/26 51/8/26 53/5/26 
f 55/1/27 56/2/27 54/3/27 
f 54/3/27 53/4/27 55/1/27 
f 57/5/28 58/6/28 56/7/28 
f 56/7/28 55/8/28 57/5/28 
f 59/1/29 60/2/29 58/3/29 
f 58/3/29 57/4/29 59/1/29 
f 61/5/30 62/6/30 60/7/30 
f 60/7/30 59/8/30 61/5/30 
f 63/1/31 64/2/31 62/3/31 
f 62/3/31 61/4/31 63/1/31 
f 65/5/32 66/6/32 64/7/32 
f 64/7/32 63/8/32 65/5/32 
f 67/1/33 68/2/33 66/3/33 
f 66/3/33 65/4/33 67/1/33 
f 69/5/34 70/6/34 68/7/34 
f 68/7/34 67/8/34 69/5/34 
f 71/1/35 72/2/35 70/3/35 
f 70/3/35 69/4/35 71/1/35 
f 42/5/36 41/6/36 72/7/36 
f 72/7/36 71/8/36 42/5/36 
# 72 faces

