# 3ds Max Wavefront OBJ Exporter v0.97b - (c)2007 guruware
# File Created: 11.05.2017 23:56:37

mtllib roof.mtl

#
# object Box008
#

v  1.5973 24.2764 -0.6733
v  1.5252 24.5570 -0.6733
v  -10.2954 21.2712 -0.6733
v  -10.2233 20.9906 -0.6733
v  1.5973 24.2764 -1.7519
v  -10.2233 20.9906 -1.7519
v  -10.2954 21.2712 -1.7519
v  1.5252 24.5570 -1.7519
v  -9.4765 20.9242 -1.2095
v  -9.9221 20.8096 -1.2095
v  -9.9222 20.8099 -1.3674
v  -9.4766 20.9245 -1.3674
v  -10.2233 20.9906 -1.2095
v  -10.2954 21.2712 -1.2095
v  -10.4921 21.9315 -1.2095
v  1.3789 25.2302 -1.2095
v  1.3789 25.2302 -2.2420
v  -10.4921 21.9315 -2.2419
v  -10.4921 21.9315 -0.2109
v  1.3789 25.2302 -0.2109
v  -10.1430 20.6785 -1.2095
v  1.6776 23.9643 -1.2095
v  1.6776 23.9643 -0.6733
v  -10.1430 20.6785 -0.6733
v  -9.5388 21.1667 -1.4618
v  -9.9845 21.0521 -1.4618
v  1.5973 24.2764 -1.2095
v  -9.5388 21.1667 -1.2095
v  -9.9845 21.0521 -1.2095
v  -9.9438 20.8938 -1.4618
v  -9.4981 21.0084 -1.4618
v  -10.3569 21.4583 -2.0107
v  1.4888 24.7505 -2.0108
v  -10.3569 21.4583 -1.2095
v  -10.3569 21.4583 -0.4421
v  1.4888 24.7505 -0.4421
v  -10.3925 21.5967 -2.0107
v  1.4532 24.8889 -2.0108
v  -10.3925 21.5966 -1.2095
v  -10.3925 21.5966 -0.4421
v  1.4532 24.8889 -0.4421
v  -10.4052 21.5938 -2.2419
v  1.4657 24.8925 -2.2420
v  -10.4052 21.5938 -1.2095
v  -10.4052 21.5938 -0.2109
v  1.4657 24.8925 -0.2109
v  0.1847 24.2583 -0.3537
v  1.8065 24.2583 -0.3537
v  1.8065 26.4850 -0.3537
v  0.1847 26.4850 -0.3537
v  0.1847 24.2583 -2.2749
v  0.1847 26.4850 -2.2749
v  1.8065 26.4850 -2.2749
v  1.8065 24.2583 -2.2749
v  0.9310 24.2764 -0.6733
v  12.7516 20.9906 -0.6733
v  12.8238 21.2712 -0.6733
v  1.0032 24.5570 -0.6733
v  0.9310 24.2764 -1.7519
v  1.0032 24.5570 -1.7519
v  12.8238 21.2712 -1.7519
v  12.7516 20.9906 -1.7519
v  12.0049 20.9242 -1.2095
v  12.0049 20.9245 -1.3674
v  12.4506 20.8099 -1.3674
v  12.4505 20.8096 -1.2095
v  12.7516 20.9906 -1.2095
v  12.8238 21.2712 -1.2095
v  13.0204 21.9315 -1.2095
v  13.0204 21.9315 -2.2419
v  1.1495 25.2302 -2.2420
v  1.1495 25.2302 -1.2095
v  1.1495 25.2302 -0.2109
v  13.0204 21.9315 -0.2109
v  12.6713 20.6785 -1.2095
v  12.6713 20.6785 -0.6733
v  0.8507 23.9643 -0.6733
v  0.8507 23.9643 -1.2095
v  12.5128 21.0521 -1.4618
v  12.0672 21.1667 -1.4618
v  12.0672 21.1667 -1.2095
v  0.9310 24.2764 -1.2095
v  12.5128 21.0521 -1.2095
v  12.4721 20.8938 -1.4618
v  12.0265 21.0084 -1.4618
v  1.0395 24.7505 -2.0108
v  12.8853 21.4583 -2.0107
v  12.8853 21.4583 -1.2095
v  12.8853 21.4583 -0.4421
v  1.0395 24.7505 -0.4421
v  1.0751 24.8889 -2.0108
v  12.9209 21.5967 -2.0107
v  12.9209 21.5966 -1.2095
v  12.9209 21.5966 -0.4421
v  1.0751 24.8889 -0.4421
v  1.0626 24.8925 -2.2420
v  12.9336 21.5938 -2.2419
v  12.9336 21.5938 -1.2095
v  12.9336 21.5938 -0.2109
v  1.0626 24.8925 -0.2109
v  -9.8355 20.3105 -0.0355
v  12.3000 20.3105 -0.0354
v  12.3000 20.6002 -0.0354
v  -9.8355 20.6002 -0.0355
v  -9.8355 20.3105 -1.1140
v  -9.8355 20.6002 -1.1140
v  12.3000 20.6002 -1.1140
v  12.3000 20.3105 -1.1140
v  10.9292 20.0602 -0.5716
v  10.9292 20.0605 -0.7295
v  11.8217 20.0605 -0.7295
v  11.8217 20.0602 -0.5716
v  12.3000 20.3105 -0.5716
v  12.3000 20.6002 -0.5716
v  12.3503 21.2886 -0.5716
v  12.3504 21.2886 -1.6041
v  -9.8859 21.2886 -1.6041
v  -9.8859 21.2886 -0.5717
v  -9.8859 21.2886 0.4269
v  12.3503 21.2886 0.4270
v  12.2999 19.9882 -0.5716
v  12.3000 19.9882 -0.0354
v  -9.8355 19.9882 -0.0355
v  -9.8355 19.9882 -0.5717
v  11.8217 20.3105 -0.8239
v  10.9292 20.3105 -0.8239
v  10.9292 20.3105 -0.5716
v  -9.8355 20.3105 -0.5717
v  11.8217 20.3105 -0.5716
v  11.8217 20.1471 -0.8239
v  10.9292 20.1471 -0.8239
v  -9.8607 20.7967 -1.3729
v  12.3252 20.7967 -1.3729
v  12.3251 20.7967 -0.5716
v  12.3251 20.7967 0.1958
v  -9.8607 20.7967 0.1957
v  -9.8607 20.9396 -1.3729
v  12.3252 20.9396 -1.3729
v  12.3251 20.9396 -0.5716
v  12.3251 20.9396 0.1958
v  -9.8607 20.9396 0.1957
v  -9.8859 20.9400 -1.6041
v  12.3503 20.9400 -1.6041
v  12.3503 20.9400 -0.5716
v  12.3503 20.9400 0.4270
v  -9.8859 20.9400 0.4269
v  -9.9029 20.1598 0.5840
v  -9.9029 20.1598 -0.9988
v  12.0666 20.1598 -0.9988
v  12.0666 20.1598 0.5840
v  0.5576 24.2571 0.5840
v  2.0450 24.2571 0.5840
v  2.0450 24.2571 -0.9988
v  0.5576 24.2571 -0.9988
v  10.0256 22.2085 0.5840
v  -6.3693 22.2085 0.5840
v  10.0256 22.2085 -0.9988
v  -6.3693 22.2085 -0.9988
# 158 vertices

vn 0.0000 0.0000 1.0000
vn 0.0000 -0.0000 1.0000
vn -0.0000 0.0000 -1.0000
vn 0.1763 -0.6855 0.7064
vn 0.0787 -0.3061 -0.9488
vn 0.2491 -0.9685 -0.0019
vn -0.9685 -0.2491 0.0000
vn -0.2503 0.9682 0.0000
vn 0.2503 -0.9682 -0.0000
vn 0.2491 -0.9685 -0.0008
vn 0.2501 -0.9676 -0.0350
vn 0.2491 -0.9685 -0.0000
vn -0.9685 -0.2491 -0.0000
vn 0.1735 -0.6746 -0.7175
vn 0.1904 -0.7367 -0.6489
vn 0.1906 -0.7375 -0.6479
vn -0.4881 -0.8728 -0.0000
vn -0.4881 -0.8728 0.0000
vn 0.1812 -0.7011 0.6897
vn 0.1810 -0.7002 0.6906
vn -0.0000 -0.0000 -1.0000
vn 0.2503 -0.9682 -0.0031
vn 0.2503 -0.9682 -0.0007
vn 0.2472 -0.9690 -0.0000
vn 0.2503 -0.9682 0.0007
vn 0.2503 -0.9682 0.0031
vn 0.7224 0.1857 0.6661
vn 0.6848 0.1761 0.7071
vn 0.9607 -0.2778 -0.0000
vn 0.9685 0.2491 -0.0000
vn 0.5511 -0.7609 -0.3425
vn 0.6848 0.1761 -0.7071
vn 0.9580 -0.2869 -0.0056
vn 0.9685 0.2490 -0.0000
vn 0.9629 -0.1425 0.2291
vn 0.9864 -0.1460 -0.0759
vn 0.7854 -0.4771 -0.3943
vn 0.2333 -0.9724 -0.0000
vn 0.4725 -0.8813 0.0000
vn -0.2333 0.9724 0.0000
vn -0.4725 0.8813 -0.0000
vn 0.2144 -0.9723 0.0930
vn 0.2153 -0.9765 -0.0022
vn 0.0934 -0.4236 -0.9010
vn 0.3576 -0.9339 0.0000
vn -0.2137 0.9769 0.0000
vn 0.2137 -0.9769 -0.0000
vn 0.2153 -0.9766 -0.0010
vn 0.2153 -0.9765 0.0000
vn 0.2135 -0.9761 -0.0403
vn 0.2136 -0.9769 -0.0001
vn 0.2136 -0.9769 0.0000
vn 0.2136 -0.9769 -0.0000
vn 0.2153 -0.9765 -0.0000
vn 0.3576 -0.9339 -0.0000
vn 0.1395 -0.6329 -0.7616
vn 0.1526 -0.6974 -0.7002
vn 0.1524 -0.6965 -0.7012
vn 0.3428 -0.9394 0.0000
vn 0.3428 -0.9394 -0.0000
vn 0.1437 -0.6568 0.7403
vn 0.1439 -0.6577 0.7394
vn 0.2137 -0.9769 -0.0008
vn 0.2137 -0.9769 -0.0036
vn 0.2177 -0.9760 -0.0000
vn 0.2137 -0.9769 0.0036
vn 0.2137 -0.9769 0.0008
vn -0.3576 0.9339 -0.0000
vn 0.0154 -0.0401 0.9991
vn -0.3546 0.9261 -0.1288
vn -0.4063 0.8963 -0.1777
vn -0.3678 0.9299 -0.0009
vn -0.3643 0.9306 0.0348
vn -0.3546 0.9261 0.1288
vn -0.3675 0.9300 -0.0000
vn -0.3645 0.9311 -0.0113
vn -0.3743 0.9230 -0.0898
vn -0.3552 0.9277 0.1152
vn -0.3576 0.9339 0.0000
vn 0.0586 -0.2440 -0.9680
vn 0.2333 -0.9724 -0.0020
vn 0.0982 -0.4093 -0.9071
vn -0.2333 0.9724 -0.0000
vn 0.2333 -0.9724 0.0000
vn 0.4725 -0.8813 -0.0000
vn 0.1599 -0.6662 -0.7285
vn 0.1752 -0.7303 -0.6603
vn 0.3973 -0.9177 0.0000
vn 0.1663 -0.6929 0.7016
vn 0.2344 -0.9721 -0.0000
vn 0.2333 -0.9724 0.0020
vn -0.0045 0.0084 -1.0000
vn -0.4265 0.7955 -0.4305
vn -0.3450 -0.4502 -0.8236
vn -0.5552 0.8317 -0.0043
vn -0.5194 0.8416 0.1481
vn -0.4265 0.7955 0.4304
vn -0.5529 0.8332 -0.0000
vn -0.5246 0.8500 -0.0484
vn -0.5767 0.6706 -0.4666
vn -0.4347 0.8108 0.3919
vn -0.4725 0.8813 0.0000
vn -0.1445 0.9895 -0.0000
vn -0.1800 0.9837 0.0000
vn -0.2662 0.9639 -0.0000
vn -0.2587 0.9659 -0.0000
vn -0.2154 0.9765 -0.0000
vn -0.2513 0.9679 -0.0000
# 108 vertex normals

vt 0.8979 0.6851 0.0000
vt 0.8979 0.6645 0.0000
vt 0.8979 0.6814 0.0000
vt 0.8979 0.7020 0.0000
vt 0.9005 0.6851 0.0000
vt 0.9005 0.7020 0.0000
vt 0.9005 0.6814 0.0000
vt 0.9005 0.6645 0.0000
vt 0.8992 0.7198 0.0000
vt 0.8996 0.7198 0.0000
vt 0.8992 0.7020 0.0000
vt 0.8992 0.6814 0.0000
vt 0.8992 0.6325 0.0000
vt 0.8992 0.6156 0.0000
vt 0.9017 0.6156 0.0000
vt 0.9017 0.6325 0.0000
vt 0.8968 0.6325 0.0000
vt 0.8968 0.6156 0.0000
vt 0.9644 0.6527 0.0000
vt 0.9644 0.6696 0.0000
vt 0.9631 0.6696 0.0000
vt 0.9631 0.6527 0.0000
vt 0.8979 0.7249 0.0000
vt 0.8979 0.7080 0.0000
vt 0.8992 0.7249 0.0000
vt 0.9657 0.6755 0.0000
vt 0.9657 0.6924 0.0000
vt 0.9650 0.6755 0.0000
vt 0.9644 0.6924 0.0000
vt 0.9644 0.6755 0.0000
vt 0.8992 0.6851 0.0000
vt 0.8992 0.7080 0.0000
vt 0.8998 0.7020 0.0000
vt 0.8998 0.7136 0.0000
vt 0.9657 0.7130 0.0000
vt 0.9657 0.6961 0.0000
vt 0.9663 0.7101 0.0000
vt 0.9663 0.7270 0.0000
vt 0.8992 0.6675 0.0000
vt 0.9012 0.6675 0.0000
vt 0.8974 0.6675 0.0000
vt 0.9631 0.6961 0.0000
vt 0.9631 0.7130 0.0000
vt 0.9625 0.7270 0.0000
vt 0.9625 0.7101 0.0000
vt 0.9012 0.6506 0.0000
vt 0.9012 0.6573 0.0000
vt 0.9012 0.6404 0.0000
vt 0.8992 0.6573 0.0000
vt 0.8974 0.6573 0.0000
vt 0.8974 0.6506 0.0000
vt 0.8974 0.6404 0.0000
vt 0.9663 0.7371 0.0000
vt 0.9663 0.7202 0.0000
vt 0.9669 0.7202 0.0000
vt 0.9669 0.7371 0.0000
vt 0.9017 0.6573 0.0000
vt 0.8968 0.6573 0.0000
vt 0.9625 0.7202 0.0000
vt 0.9625 0.7371 0.0000
vt 0.9620 0.7371 0.0000
vt 0.9620 0.7202 0.0000
vt 0.9017 0.6404 0.0000
vt 0.8968 0.6404 0.0000
vt 0.9669 0.7619 0.0000
vt 0.9644 0.7619 0.0000
vt 0.9620 0.7619 0.0000
vt 0.9631 0.6924 0.0000
vt 0.9644 0.6578 0.0000
vt 0.9648 0.6578 0.0000
vt 0.9650 0.6639 0.0000
vt 0.6681 0.6644 0.0000
vt 0.7354 0.6357 0.0000
vt 0.7592 0.7889 0.0000
vt 0.6918 0.8175 0.0000
vt 0.8012 0.7688 0.0000
vt 0.8250 0.6156 0.0000
vt 0.8923 0.6443 0.0000
vt 0.8686 0.7975 0.0000
vt 0.0216 0.6760 0.0000
vt 0.4776 0.7106 0.0000
vt 0.4835 0.7348 0.0000
vt 0.0276 0.7002 0.0000
vt 0.0315 0.9174 0.0000
vt 0.0375 0.8935 0.0000
vt 0.4935 0.8810 0.0000
vt 0.4875 0.9049 0.0000
vt 0.4558 0.9274 0.0000
vt 0.4731 0.9262 0.0000
vt 0.9470 0.1956 0.0000
vt 0.9483 0.1956 0.0000
vt 0.9483 0.2136 0.0000
vt 0.9470 0.2136 0.0000
vt 0.4987 0.7923 0.0000
vt 0.0407 0.7575 0.0000
vt 0.9457 0.2136 0.0000
vt 0.9457 0.1956 0.0000
vt 0.4809 0.9315 0.0000
vt 0.0249 0.9440 0.0000
vt 0.0150 0.6491 0.0000
vt 0.4709 0.6837 0.0000
vt 0.9457 0.1755 0.0000
vt 0.9470 0.1755 0.0000
vt 0.4782 0.9056 0.0000
vt 0.4609 0.9068 0.0000
vt 0.9365 0.3384 0.0000
vt 0.9522 0.3568 0.0000
vt 0.9522 0.3727 0.0000
vt 0.9365 0.3727 0.0000
vt 0.9470 0.2040 0.0000
vt 0.9470 0.1885 0.0000
vt 0.9473 0.1885 0.0000
vt 0.9476 0.1939 0.0000
vt 0.9476 0.2040 0.0000
vt 0.4749 0.9191 0.0000
vt 0.4576 0.9203 0.0000
vt 0.0410 0.8773 0.0000
vt 0.4980 0.8648 0.0000
vt 0.9489 0.2254 0.0000
vt 0.9470 0.2254 0.0000
vt 0.9451 0.2254 0.0000
vt 0.4881 0.7512 0.0000
vt 0.0311 0.7165 0.0000
vt 0.0440 0.8655 0.0000
vt 0.5009 0.8530 0.0000
vt 0.9489 0.2343 0.0000
vt 0.9470 0.2343 0.0000
vt 0.9451 0.2343 0.0000
vt 0.4910 0.7632 0.0000
vt 0.0340 0.7284 0.0000
vt 0.0435 0.8655 0.0000
vt 0.5014 0.8530 0.0000
vt 0.4915 0.7632 0.0000
vt 0.0336 0.7284 0.0000
vt 0.0507 0.8368 0.0000
vt 0.5086 0.8242 0.0000
vt 0.7662 0.7350 0.0000
vt 0.7812 0.7350 0.0000
vt 0.7804 0.7350 0.0000
vt 0.7655 0.7350 0.0000
vt 0.0134 0.0437 0.0000
vt 0.0165 0.0437 0.0000
vt 0.9355 0.0437 0.0000
vt 0.9325 0.0437 0.0000
vt 0.8729 0.0780 0.0000
vt 0.8729 0.0680 0.0000
vt 0.9099 0.0680 0.0000
vt 0.9099 0.0780 0.0000
vt 0.9325 0.0780 0.0000
vt 0.9355 0.0780 0.0000
vt 0.0174 0.2409 0.0000
vt 0.0174 0.1755 0.0000
vt 0.9406 0.1755 0.0000
vt 0.9406 0.2409 0.0000
vt 0.9406 0.3041 0.0000
vt 0.0174 0.3041 0.0000
vt 0.9355 0.1120 0.0000
vt 0.9325 0.1120 0.0000
vt 0.9290 0.0780 0.0000
vt 0.9290 0.1120 0.0000
vt 0.0100 0.1120 0.0000
vt 0.0100 0.0780 0.0000
vt 0.7671 0.7350 0.0000
vt 0.7820 0.7350 0.0000
vt 0.9126 0.0621 0.0000
vt 0.8755 0.0621 0.0000
vt 0.8755 0.0780 0.0000
vt 0.0134 0.0780 0.0000
vt 0.9126 0.0780 0.0000
vt 0.9109 0.0621 0.0000
vt 0.8738 0.0621 0.0000
vt 0.0176 0.0273 0.0000
vt 0.9387 0.0273 0.0000
vt 0.9387 0.0780 0.0000
vt 0.9387 0.1266 0.0000
vt 0.0176 0.1266 0.0000
vt 0.0165 0.1120 0.0000
vt 0.0191 0.0273 0.0000
vt 0.9402 0.0273 0.0000
vt 0.9402 0.0780 0.0000
vt 0.9402 0.1266 0.0000
vt 0.7799 0.7496 0.0000
vt 0.7795 0.7496 0.0000
vt 0.7646 0.7496 0.0000
vt 0.7650 0.7496 0.0000
vt 0.0181 0.0127 0.0000
vt 0.9413 0.0127 0.0000
vt 0.9413 0.0780 0.0000
vt 0.9413 0.1412 0.0000
vt 0.0181 0.1412 0.0000
vt 0.0191 0.1266 0.0000
vt 0.0218 0.0127 0.0000
vt 0.9450 0.0127 0.0000
vt 0.9450 0.0780 0.0000
vt 0.9450 0.1412 0.0000
vt 0.7795 0.7642 0.0000
vt 0.7786 0.7642 0.0000
vt 0.7637 0.7642 0.0000
vt 0.7646 0.7642 0.0000
vt 0.7655 0.6667 0.0000
vt 0.7662 0.6667 0.0000
vt 0.7662 0.7010 0.0000
vt 0.7671 0.7010 0.0000
vt 0.7637 0.7010 0.0000
vt 0.7637 0.6357 0.0000
vt 0.7646 0.6357 0.0000
vt 0.7646 0.6503 0.0000
vt 0.7650 0.6503 0.0000
vt 0.7807 0.6851 0.0000
vt 0.7809 0.6911 0.0000
vt 0.7809 0.7010 0.0000
vt 0.7802 0.6851 0.0000
vt 0.7802 0.7010 0.0000
vt 0.0199 0.5939 0.0000
vt 0.0199 0.4938 0.0000
vt 0.9320 0.4938 0.0000
vt 0.9320 0.5939 0.0000
vt 0.4540 0.4386 0.0000
vt 0.3922 0.4386 0.0000
vt 0.3922 0.3384 0.0000
vt 0.4540 0.3384 0.0000
vt 0.0199 0.4386 0.0000
vt 0.0828 0.4386 0.0000
vt 0.7635 0.4386 0.0000
vt 0.9320 0.4386 0.0000
vt 0.0199 0.3384 0.0000
vt 0.0828 0.3384 0.0000
vt 0.1885 0.4938 0.0000
vt 0.8692 0.4938 0.0000
vt 0.7635 0.3384 0.0000
vt 0.9320 0.3384 0.0000
vt 0.4980 0.4938 0.0000
vt 0.5597 0.4938 0.0000
# 233 texture coords

g Box008
usemtl Material__64
s 1
f 1/1/1 2/2/2 3/3/1 
f 3/3/1 4/4/1 1/1/1 
f 5/5/3 6/6/3 7/7/3 
f 7/7/3 8/8/3 5/5/3 
f 9/9/4 10/9/5 11/10/6 
f 11/10/6 12/10/6 9/9/4 
s 2
f 13/11/7 14/12/7 7/7/7 
f 7/7/7 6/6/7 13/11/7 
s 4
f 15/13/8 16/14/8 17/15/8 
f 17/15/8 18/16/8 15/13/8 
f 16/14/8 15/13/8 19/17/8 
f 19/17/8 20/18/8 16/14/8 
s 2
f 14/12/7 13/11/7 4/4/7 
f 4/4/7 3/3/7 14/12/7 
s 4
f 21/19/9 22/20/9 23/21/9 
f 23/21/9 24/22/9 21/19/9 
s 1
f 1/1/1 4/4/1 24/23/2 
f 24/23/2 23/24/1 1/1/1 
s 2
f 4/4/7 13/11/7 21/25/7 
f 21/25/7 24/23/7 4/4/7 
s 4
f 6/26/10 5/27/9 25/28/11 
f 25/28/11 26/28/12 6/26/10 
f 5/27/9 27/29/9 28/30/9 
f 28/30/9 25/28/11 5/27/9 
s 1
f 27/31/3 22/32/3 9/9/4 
f 9/9/4 28/11/3 27/31/3 
f 22/32/3 21/25/3 10/9/5 
f 10/9/5 9/9/4 22/32/3 
f 21/25/3 13/11/3 29/11/3 
f 29/11/3 10/9/5 21/25/3 
s 4
f 13/11/12 6/6/10 26/33/12 
f 26/33/12 29/11/12 13/11/12 
s 2
f 26/33/13 30/34/7 11/10/13 
f 29/11/13 26/33/13 11/10/13 
f 29/11/13 11/10/13 10/9/13 
s 1
f 26/33/3 25/33/3 31/34/3 
f 31/34/3 30/34/3 26/33/3 
s 4
f 11/10/14 30/34/14 31/34/14 
f 31/34/14 12/10/14 11/10/14 
s off
f 8/35/15 7/36/15 32/37/15 
f 32/37/16 33/38/16 8/35/16 
f 7/7/17 14/12/17 34/39/17 
f 34/39/17 32/40/17 7/7/17 
f 14/12/18 3/3/18 35/41/18 
f 35/41/18 34/39/18 14/12/18 
f 3/42/19 2/43/19 36/44/19 
f 36/44/20 35/45/20 3/42/20 
f 33/46/3 32/40/3 37/47/3 
f 37/47/21 38/48/21 33/46/21 
f 32/40/13 34/39/13 39/49/13 
f 39/49/13 37/47/13 32/40/13 
f 34/39/7 35/41/7 40/50/7 
f 40/50/7 39/49/7 34/39/7 
f 35/41/1 36/51/1 41/52/1 
f 41/52/2 40/50/2 35/41/2 
f 38/53/22 37/54/22 42/55/22 
f 42/55/23 43/56/23 38/53/23 
f 37/47/24 39/49/24 44/49/24 
f 44/49/24 42/57/24 37/47/24 
f 39/49/24 40/50/24 45/58/24 
f 45/58/24 44/49/24 39/49/24 
f 40/59/25 41/60/25 46/61/25 
f 46/61/26 45/62/26 40/59/26 
f 43/63/3 42/57/3 18/16/3 
f 18/16/21 17/15/21 43/63/21 
f 42/57/13 44/49/13 15/13/13 
f 15/13/13 18/16/13 42/57/13 
f 44/49/7 45/58/7 19/17/7 
f 19/17/7 15/13/7 44/49/7 
f 45/58/1 46/64/1 20/18/1 
f 20/18/2 19/17/2 45/58/2 
f 8/35/27 33/38/27 38/53/27 
f 38/53/28 43/56/28 17/65/28 
f 38/53/29 17/65/29 16/66/29 
f 16/66/30 20/67/30 46/61/30 
f 16/66/31 46/61/31 41/60/31 
f 41/60/32 36/44/32 2/43/32 
f 16/66/33 41/60/33 2/43/33 
f 2/43/7 1/68/7 23/21/7 
f 23/21/34 22/20/34 27/29/34 
f 2/43/30 23/21/30 27/29/30 
f 16/66/35 2/43/35 27/29/35 
f 38/53/36 16/66/36 27/29/36 
f 8/35/37 38/53/37 27/29/37 
f 8/35/30 27/29/30 5/27/30 
f 9/69/30 12/70/30 31/71/30 
f 9/69/30 31/71/30 25/28/30 
f 28/30/30 9/69/30 25/28/30 
s 2
f 47/72/1 48/73/1 49/74/1 
f 49/74/1 50/75/1 47/72/1 
s 4
f 51/76/21 52/77/21 53/78/21 
f 53/78/21 54/79/21 51/76/21 
s 8
f 47/72/38 51/72/38 54/73/38 
f 54/73/38 48/73/38 47/72/38 
s 16
f 48/73/39 54/73/39 53/74/39 
f 53/74/39 49/74/39 48/73/39 
s 32
f 49/74/40 53/74/40 52/75/40 
f 52/75/40 50/75/40 49/74/40 
s 64
f 50/77/41 52/77/41 51/76/41 
f 51/76/41 47/76/41 50/77/41 
s 1
f 55/80/1 56/81/1 57/82/1 
f 57/82/1 58/83/1 55/80/1 
f 59/84/21 60/85/21 61/86/21 
f 61/86/21 62/87/21 59/84/21 
f 63/88/42 64/88/43 65/89/43 
f 65/89/43 66/89/44 63/88/42 
s 2
f 67/90/45 62/91/45 61/92/45 
f 61/92/45 68/93/45 67/90/45 
s 4
f 69/94/46 70/94/46 71/95/46 
f 71/95/46 72/95/46 69/94/46 
f 72/95/46 73/95/46 74/94/46 
f 74/94/46 69/94/46 72/95/46 
s 2
f 68/93/45 57/96/45 56/97/45 
f 56/97/45 67/90/45 68/93/45 
s 4
f 75/98/47 76/98/47 77/99/47 
f 77/99/47 78/99/47 75/98/47 
s 1
f 55/80/1 77/100/1 76/101/1 
f 76/101/1 56/81/1 55/80/1 
s 2
f 56/97/45 76/102/45 75/103/45 
f 75/103/45 67/90/45 56/97/45 
s 4
f 62/87/48 79/104/49 80/105/50 
f 80/105/50 59/84/51 62/87/48 
f 59/106/51 80/107/50 81/108/52 
f 81/108/52 82/109/53 59/106/51 
s 1
f 82/84/21 81/105/21 63/88/42 
f 63/88/42 78/99/21 82/84/21 
f 78/99/21 63/88/42 66/89/44 
f 66/89/44 75/98/21 78/99/21 
f 75/98/21 66/89/44 83/104/21 
f 83/104/21 67/87/21 75/98/21 
s 4
f 67/87/54 83/104/54 79/104/49 
f 79/104/49 62/87/48 67/87/54 
s 2
f 83/110/55 66/111/55 65/112/55 
f 65/112/55 84/113/45 79/114/45 
f 83/110/55 65/112/55 79/114/45 
s 1
f 79/104/21 84/115/21 85/116/21 
f 85/116/21 80/105/21 79/104/21 
s 4
f 65/89/56 64/88/56 85/116/56 
f 85/116/56 84/115/56 65/89/56 
s off
f 60/85/57 86/117/57 87/118/57 
f 87/118/58 61/86/58 60/85/58 
f 61/92/59 87/119/59 88/120/59 
f 88/120/60 68/93/60 61/92/60 
f 68/93/59 88/120/59 89/121/59 
f 89/121/59 57/96/59 68/93/59 
f 57/82/61 89/122/61 90/123/61 
f 90/123/62 58/83/62 57/82/62 
f 86/117/21 91/124/21 92/125/21 
f 92/125/21 87/118/21 86/117/21 
f 87/119/45 92/126/45 93/127/45 
f 93/127/45 88/120/45 87/119/45 
f 88/120/45 93/127/45 94/128/45 
f 94/128/45 89/121/45 88/120/45 
f 89/122/1 94/129/1 95/130/1 
f 95/130/1 90/123/1 89/122/1 
f 91/124/63 96/131/63 97/132/63 
f 97/132/64 92/125/64 91/124/64 
f 92/125/65 97/132/65 98/132/65 
f 98/132/65 93/125/65 92/125/65 
f 93/125/65 98/132/65 99/132/65 
f 99/132/65 94/125/65 93/125/65 
f 94/129/66 99/133/66 100/134/66 
f 100/134/67 95/130/67 94/129/67 
f 96/131/21 71/135/21 70/136/21 
f 70/136/21 97/132/21 96/131/21 
f 97/133/45 70/94/45 69/94/45 
f 69/94/45 98/133/45 97/133/45 
f 98/133/45 69/94/45 74/94/45 
f 74/94/45 99/133/45 98/133/45 
f 99/133/1 74/94/1 73/95/1 
f 73/95/1 100/134/1 99/133/1 
f 60/85/68 59/84/68 82/84/68 
f 82/84/68 78/99/68 77/99/68 
f 77/99/69 55/84/69 58/85/69 
f 82/84/68 77/99/68 58/85/68 
f 58/85/70 90/117/70 95/124/70 
f 100/131/68 73/135/68 72/135/68 
f 95/124/71 100/131/71 72/135/71 
f 58/85/72 95/124/72 72/135/72 
f 82/84/73 58/85/73 72/135/73 
f 71/135/74 96/131/74 91/124/74 
f 72/135/75 71/135/75 91/124/75 
f 82/84/76 72/135/76 91/124/76 
f 60/85/77 82/84/77 91/124/77 
f 60/85/78 91/124/78 86/117/78 
f 85/116/79 64/88/79 63/88/79 
f 80/105/68 85/116/68 63/88/68 
f 81/105/68 80/105/68 63/88/68 
s 1
f 101/137/1 102/138/1 103/139/1 
f 103/139/1 104/140/1 101/137/1 
f 105/141/21 106/142/21 107/143/21 
f 107/143/21 108/144/21 105/141/21 
f 109/145/80 110/146/81 111/147/81 
f 111/147/81 112/148/82 109/145/80 
s 2
f 113/149/39 108/144/39 107/143/39 
f 107/143/39 114/150/39 113/149/39 
s 4
f 115/151/40 116/152/40 117/153/40 
f 117/153/40 118/154/40 115/151/40 
f 118/154/40 119/155/40 120/156/83 
f 120/156/83 115/151/40 118/154/40 
s 2
f 114/150/39 103/157/39 102/158/39 
f 102/158/39 113/149/39 114/150/39 
s 4
f 121/159/84 122/160/84 123/161/38 
f 123/161/38 124/162/38 121/159/84 
s 1
f 101/137/1 123/163/1 122/164/1 
f 122/164/1 102/138/1 101/137/1 
s 2
f 102/158/39 122/160/39 121/159/39 
f 121/159/39 113/149/39 102/158/39 
s 4
f 108/144/84 125/165/84 126/166/84 
f 126/166/84 105/141/38 108/144/84 
f 105/141/38 126/166/84 127/167/38 
f 127/167/38 128/168/38 105/141/38 
s 1
f 128/168/21 127/167/21 109/145/80 
f 109/145/80 124/162/21 128/168/21 
f 124/162/21 109/145/80 112/148/82 
f 112/148/82 121/159/21 124/162/21 
f 121/159/21 112/148/82 129/169/21 
f 129/169/21 113/149/21 121/159/21 
s 4
f 113/149/84 129/169/38 125/165/84 
f 125/165/84 108/144/84 113/149/84 
s 2
f 129/169/39 112/148/85 111/147/85 
f 111/147/85 130/170/85 125/165/39 
f 129/169/39 111/147/85 125/165/39 
s 1
f 125/165/21 130/170/21 131/171/21 
f 131/171/21 126/166/21 125/165/21 
s 4
f 111/147/86 110/146/86 131/171/86 
f 131/171/86 130/170/86 111/147/86 
s off
f 106/142/87 132/172/87 133/173/87 
f 133/173/87 107/143/87 106/142/87 
f 107/143/88 133/173/88 134/174/88 
f 134/174/88 114/150/88 107/143/88 
f 114/150/88 134/174/88 135/175/88 
f 135/175/88 103/157/88 114/150/88 
f 103/157/89 135/175/89 136/176/89 
f 136/176/89 104/177/89 103/157/89 
f 132/172/21 137/178/21 138/179/21 
f 138/179/21 133/173/21 132/172/21 
f 133/173/39 138/179/39 139/180/39 
f 139/180/39 134/174/39 133/173/39 
f 134/174/39 139/180/39 140/181/39 
f 140/181/39 135/175/39 134/174/39 
f 135/182/1 140/183/1 141/184/1 
f 141/184/1 136/185/1 135/182/1 
f 137/178/81 142/186/81 143/187/81 
f 143/187/81 138/179/81 137/178/81 
f 138/179/90 143/187/90 144/188/90 
f 144/188/90 139/180/90 138/179/90 
f 139/180/90 144/188/90 145/189/90 
f 145/189/90 140/181/90 139/180/90 
f 140/181/91 145/189/91 146/190/91 
f 146/190/91 141/191/91 140/181/91 
f 142/186/21 117/192/21 116/193/21 
f 116/193/21 143/187/21 142/186/21 
f 143/187/39 116/193/39 115/194/39 
f 115/194/39 144/188/39 143/187/39 
f 144/188/39 115/194/39 120/195/39 
f 120/195/39 145/189/39 144/188/39 
f 145/196/1 120/197/1 119/198/1 
f 119/198/1 146/199/1 145/196/1 
f 106/200/41 105/201/41 128/202/41 
f 128/202/41 124/203/41 123/163/41 
f 123/163/92 101/137/92 104/140/92 
f 128/202/41 123/163/41 104/140/41 
f 104/140/93 136/185/93 141/184/93 
f 146/199/41 119/198/41 118/204/41 
f 141/184/94 146/199/94 118/204/94 
f 104/140/95 141/184/95 118/204/95 
f 128/202/96 104/140/96 118/204/96 
f 117/205/97 142/206/97 137/207/97 
f 118/204/98 117/205/98 137/207/98 
f 128/202/99 118/204/99 137/207/99 
f 106/200/100 128/202/100 137/207/100 
f 106/200/101 137/207/101 132/208/101 
f 131/209/102 110/210/102 109/211/102 
f 126/212/102 131/209/102 109/211/102 
f 127/213/102 126/212/102 109/211/102 
s 2
f 147/214/84 148/215/84 149/216/84 
f 149/216/84 150/217/84 147/214/84 
s 4
f 151/218/83 152/219/83 153/220/83 
f 153/220/83 154/221/83 151/218/83 
s 8
f 150/222/1 155/223/1 156/224/1 
f 156/224/1 147/225/1 150/222/1 
s 16
f 149/226/103 157/227/104 155/223/104 
f 155/223/104 150/222/103 149/226/103 
s 32
f 149/216/21 148/215/21 158/228/21 
f 158/228/21 157/229/21 149/216/21 
s 64
f 147/225/105 156/224/106 158/230/106 
f 158/230/106 148/231/105 147/225/105 
s 8
f 155/223/1 152/219/1 151/218/1 
f 151/218/1 156/224/1 155/223/1 
s 16
f 153/220/107 152/219/107 155/223/104 
f 155/223/104 157/227/104 153/220/107 
s 32
f 154/232/21 153/233/21 157/229/21 
f 157/229/21 158/228/21 154/232/21 
s 64
f 151/218/108 154/221/108 158/230/106 
f 158/230/106 156/224/106 151/218/108 
# 296 faces

