{"asset":{"version":"2.0","generator":"Babylon2Gltf2017","copyright":"2017 (c) BabylonJS"},"scene":0,"scenes":[{"nodes":[1]}],"nodes":[{"mesh":0,"translation":[-0.1412015,0.0,-0.998092651],"rotation":[0.0,0.0,0.0,-1.0],"scale":[0.0241471622,0.0241471622,0.0241471622],"name":"Plane001"},{"children":[0],"translation":[0.0,0.0,0.0],"rotation":[0.0,1.0,0.0,-4.371139E-08],"scale":[1.0,1.0,-1.0],"name":"root"}],"meshes":[{"primitives":[{"attributes":{"POSITION":1,"NORMAL":2,"TEXCOORD_0":3},"indices":0,"mode":4,"material":0}],"name":"Plane001"}],"accessors":[{"bufferView":0,"componentType":5123,"count":168,"type":"SCALAR","name":"accessorIndices"},{"bufferView":1,"componentType":5126,"count":168,"max":[89.7057953,90.90143,87.6610947],"min":[-89.7057953,0.0,-87.6610947],"type":"VEC3","name":"accessorPositions"},{"bufferView":1,"byteOffset":2016,"componentType":5126,"count":168,"type":"VEC3","name":"accessorNormals"},{"bufferView":2,"componentType":5126,"count":168,"type":"VEC2","name":"accessorUVs"}],"bufferViews":[{"buffer":0,"byteLength":336,"name":"bufferViewScalar"},{"buffer":0,"byteOffset":336,"byteLength":4032,"byteStride":12,"name":"bufferViewFloatVec3"},{"buffer":0,"byteOffset":4368,"byteLength":1344,"byteStride":8,"name":"bufferViewFloatVec2"}],"buffers":[{"uri":"test.bin","byteLength":5712}],"materials":[{"pbrMetallicRoughness":{"baseColorFactor":[1.0,1.0,1.0,1.0],"baseColorTexture":{"index":0},"metallicFactor":0.0,"roughnessFactor":0.9},"emissiveFactor":[0.0,0.0,0.0],"alphaMode":"BLEND","name":"Material #36"}],"textures":[{"sampler":0,"source":0,"name":"Material #36_baseColor.png"}],"images":[{"uri":"Material #36_baseColor.png"}],"samplers":[{"magFilter":9729,"minFilter":9987,"wrapS":10497,"wrapT":10497}]}